<?xml version="1.0" encoding="UTF-8"?>
<svg xmlns="http://www.w3.org/2000/svg" xmlns:xlink="http://www.w3.org/1999/xlink" width="75pt" height="75pt" viewBox="0 0 75 75" version="1.1">
<g id="surface2">
<path style=" stroke:none;fill-rule:nonzero;fill:rgb(22.352941%,70.980392%,29.019608%);fill-opacity:1;" d="M -0.171875 37.492188 C -0.171875 58.199219 16.621094 74.992188 37.328125 74.992188 C 58.035156 74.992188 74.828125 58.199219 74.828125 37.492188 C 74.828125 16.785156 58.035156 -0.0078125 37.328125 -0.0078125 C 16.621094 -0.0078125 -0.171875 16.777344 -0.171875 37.492188 Z M -0.171875 37.492188 "/>
<path style=" stroke:none;fill-rule:nonzero;fill:rgb(100%,100%,100%);fill-opacity:1;" d="M 36.066406 12.292969 C 37.636719 12.292969 39.203125 12.292969 40.769531 12.292969 C 41.191406 12.414062 41.609375 12.570312 42.039062 12.652344 C 55.449219 15.253906 62.09375 30.863281 54.351562 42.074219 C 49.5 49.109375 44.191406 55.828125 39.089844 62.691406 C 38.640625 62.691406 38.191406 62.691406 37.746094 62.691406 C 32.804688 56.078125 27.800781 49.515625 22.933594 42.847656 C 15.886719 33.195312 19.101562 19.808594 29.78125 14.429688 C 31.738281 13.449219 33.96875 12.988281 36.066406 12.292969 Z M 38.378906 41.859375 C 43.996094 41.859375 48.757812 37.207031 48.796875 31.695312 C 48.824219 25.890625 44.136719 21.105469 38.421875 21.097656 C 32.804688 21.089844 28.035156 25.785156 28.042969 31.304688 C 28.050781 37.191406 32.617188 41.859375 38.378906 41.859375 Z M 38.378906 41.859375 "/>
</g>
</svg>
