<?xml version="1.0" encoding="UTF-8"?>
<svg xmlns="http://www.w3.org/2000/svg" xmlns:xlink="http://www.w3.org/1999/xlink" width="75pt" height="75pt" viewBox="0 0 75 75" version="1.1">
<g id="surface2">
<path style=" stroke:none;fill-rule:nonzero;fill:rgb(49.019608%,0.784314%,38.823529%);fill-opacity:1;" d="M 75 37.5 C 75 16.792969 58.207031 0 37.5 0 C 16.792969 0 0 16.792969 0 37.5 C 0 58.207031 16.792969 75 37.5 75 C 58.207031 75 75 58.207031 75 37.5 Z M 75 37.5 "/>
<path style=" stroke:none;fill-rule:nonzero;fill:rgb(100%,100%,100%);fill-opacity:1;" d="M 55.246094 64.085938 C 43.441406 64.085938 31.636719 64.085938 19.828125 64.085938 C 18.683594 63.636719 18.226562 62.804688 18.238281 61.574219 C 18.285156 58.394531 18.253906 55.207031 18.253906 52.019531 C 18.253906 51.832031 18.253906 51.644531 18.253906 51.398438 C 17.859375 51.398438 17.527344 51.398438 17.191406 51.398438 C 15.21875 51.375 13.996094 50.167969 13.996094 48.203125 C 13.988281 43.140625 13.988281 38.070312 13.996094 33.007812 C 13.996094 31.207031 15.253906 29.953125 17.0625 29.933594 C 17.445312 29.925781 17.828125 29.933594 18.253906 29.933594 C 18.253906 29.691406 18.253906 29.503906 18.253906 29.316406 C 18.253906 23.917969 18.261719 18.511719 18.246094 13.109375 C 18.246094 12.277344 18.570312 11.648438 19.273438 11.21875 C 19.476562 11.101562 19.710938 11.023438 19.925781 10.925781 C 28.546875 10.925781 37.171875 10.925781 45.789062 10.925781 C 45.996094 11.09375 46.246094 11.226562 46.425781 11.421875 C 49.738281 15.1875 53.039062 18.96875 56.355469 22.734375 C 56.683594 23.109375 56.828125 23.503906 56.828125 23.992188 C 56.8125 25.792969 56.820312 27.59375 56.820312 29.390625 C 56.820312 29.566406 56.820312 29.738281 56.820312 29.933594 C 57.195312 29.933594 57.496094 29.933594 57.800781 29.933594 C 59.859375 29.933594 61.078125 31.140625 61.078125 33.195312 C 61.085938 38.199219 61.085938 43.191406 61.078125 48.195312 C 61.078125 50.152344 59.84375 51.375 57.886719 51.40625 C 57.546875 51.414062 57.21875 51.40625 56.820312 51.40625 C 56.820312 51.644531 56.820312 51.839844 56.820312 52.027344 C 56.820312 55.191406 56.789062 58.363281 56.835938 61.53125 C 56.851562 62.765625 56.398438 63.621094 55.246094 64.085938 Z M 20.347656 29.878906 C 31.824219 29.878906 43.265625 29.878906 54.710938 29.878906 C 54.710938 28.140625 54.710938 26.445312 54.710938 24.710938 C 54.511719 24.710938 54.328125 24.710938 54.15625 24.710938 C 51.40625 24.710938 48.660156 24.710938 45.90625 24.710938 C 44.789062 24.710938 44.484375 24.40625 44.484375 23.28125 C 44.484375 20.046875 44.484375 16.816406 44.484375 13.582031 C 44.484375 13.394531 44.46875 13.214844 44.453125 13.027344 C 36.390625 13.027344 28.371094 13.027344 20.347656 13.027344 C 20.347656 18.675781 20.347656 24.269531 20.347656 29.878906 Z M 20.355469 61.394531 C 31.816406 61.394531 43.253906 61.394531 54.71875 61.394531 C 54.71875 58.066406 54.71875 54.765625 54.71875 51.425781 C 43.261719 51.425781 31.824219 51.425781 20.355469 51.425781 C 20.355469 54.757812 20.355469 58.066406 20.355469 61.394531 Z M 32.167969 48.863281 C 34.867188 49.109375 37.515625 49.253906 40.125 48.609375 C 42.128906 48.113281 43.800781 47.09375 44.84375 45.234375 C 45.742188 43.621094 45.984375 41.886719 45.886719 40.066406 C 45.710938 36.789062 43.726562 34.359375 40.539062 33.601562 C 37.925781 32.976562 35.300781 33.203125 32.675781 33.449219 C 32.226562 33.496094 32.152344 33.691406 32.160156 34.09375 C 32.175781 38.835938 32.167969 43.582031 32.167969 48.324219 C 32.167969 48.464844 32.167969 48.628906 32.167969 48.863281 Z M 22.253906 48.890625 C 22.253906 47.011719 22.253906 45.179688 22.253906 43.335938 C 22.476562 43.359375 22.648438 43.378906 22.828125 43.386719 C 24.171875 43.449219 25.5 43.34375 26.761719 42.832031 C 28.90625 41.96875 30.066406 40.085938 29.894531 37.816406 C 29.714844 35.488281 28.449219 34.003906 26.078125 33.480469 C 23.8125 32.96875 21.539062 33.210938 19.261719 33.449219 C 18.863281 33.496094 18.726562 33.613281 18.734375 34.035156 C 18.75 38.835938 18.75 43.628906 18.75 48.421875 C 18.75 48.578125 18.765625 48.726562 18.78125 48.898438 C 19.933594 48.890625 21.050781 48.890625 22.253906 48.890625 Z M 48.269531 33.34375 C 48.269531 38.535156 48.269531 43.703125 48.269531 48.886719 C 49.449219 48.886719 50.59375 48.886719 51.78125 48.886719 C 51.78125 46.800781 51.78125 44.746094 51.78125 42.636719 C 53.65625 42.636719 55.5 42.636719 57.335938 42.636719 C 57.335938 41.65625 57.335938 40.726562 57.335938 39.75 C 55.46875 39.75 53.632812 39.75 51.808594 39.75 C 51.808594 38.550781 51.808594 37.394531 51.808594 36.210938 C 53.796875 36.210938 55.753906 36.210938 57.71875 36.210938 C 57.71875 35.226562 57.71875 34.296875 57.71875 33.34375 C 54.554688 33.34375 51.425781 33.34375 48.269531 33.34375 Z M 48.269531 33.34375 "/>
<path style=" stroke:none;fill-rule:nonzero;fill:rgb(100%,100%,100%);fill-opacity:1;" d="M 35.691406 46.238281 C 35.691406 45.015625 35.691406 43.875 35.691406 42.734375 C 35.691406 40.65625 35.699219 38.585938 35.683594 36.511719 C 35.683594 36.148438 35.765625 36.007812 36.148438 35.96875 C 37.320312 35.851562 38.460938 35.863281 39.5625 36.324219 C 40.867188 36.855469 41.664062 37.84375 41.976562 39.1875 C 42.292969 40.507812 42.269531 41.835938 41.84375 43.140625 C 41.234375 45.015625 39.871094 45.984375 37.980469 46.222656 C 37.253906 46.320312 36.488281 46.238281 35.691406 46.238281 Z M 35.691406 46.238281 "/>
<path style=" stroke:none;fill-rule:nonzero;fill:rgb(100%,100%,100%);fill-opacity:1;" d="M 22.253906 40.613281 C 22.253906 39.066406 22.253906 37.566406 22.253906 36.023438 C 23.152344 35.828125 24.058594 35.789062 24.945312 36.066406 C 25.84375 36.351562 26.339844 36.988281 26.40625 37.941406 C 26.476562 38.941406 26.144531 39.757812 25.246094 40.246094 C 24.324219 40.761719 23.324219 40.792969 22.253906 40.613281 Z M 22.253906 40.613281 "/>
</g>
</svg>
