<?xml version="1.0" encoding="UTF-8"?>
<svg xmlns="http://www.w3.org/2000/svg" xmlns:xlink="http://www.w3.org/1999/xlink" width="75pt" height="75pt" viewBox="0 0 75 75" version="1.1">
<g id="surface2">
<path style=" stroke:none;fill-rule:nonzero;fill:rgb(0%,44.313725%,73.72549%);fill-opacity:1;" d="M 75 37.5 C 75 16.792969 58.207031 0 37.5 0 C 16.792969 0 0 16.792969 0 37.5 C 0 58.207031 16.792969 75 37.5 75 C 58.207031 75 75 58.207031 75 37.5 Z M 75 37.5 "/>
<path style=" stroke:none;fill-rule:nonzero;fill:rgb(100%,100%,100%);fill-opacity:1;" d="M 63.5625 26.925781 C 63.5625 33.976562 63.5625 41.023438 63.5625 48.074219 C 63.195312 48.847656 62.59375 49.171875 61.726562 49.230469 C 60 49.34375 58.574219 50.738281 58.507812 52.386719 C 58.46875 53.28125 58.15625 53.894531 57.359375 54.277344 C 52.582031 54.277344 47.804688 54.277344 43.019531 54.277344 C 43.019531 53.300781 43.027344 52.320312 43.019531 51.34375 C 43.011719 50.378906 42.351562 49.695312 41.46875 49.710938 C 40.605469 49.726562 39.976562 50.398438 39.976562 51.34375 C 39.96875 52.320312 39.976562 53.300781 39.976562 54.277344 C 32.550781 54.277344 25.132812 54.277344 17.707031 54.277344 C 16.925781 53.917969 16.621094 53.308594 16.550781 52.441406 C 16.410156 50.671875 15.082031 49.34375 13.335938 49.222656 C 12.464844 49.164062 11.863281 48.847656 11.503906 48.066406 C 11.503906 41.015625 11.503906 33.96875 11.503906 26.917969 C 11.859375 26.160156 12.433594 25.824219 13.289062 25.769531 C 15.039062 25.664062 16.433594 24.324219 16.550781 22.597656 C 16.613281 21.710938 16.90625 21.089844 17.707031 20.714844 C 25.132812 20.714844 32.550781 20.714844 39.976562 20.714844 C 39.976562 21.675781 39.96875 22.636719 39.976562 23.601562 C 39.984375 24.59375 40.597656 25.28125 41.46875 25.289062 C 42.367188 25.304688 43.011719 24.609375 43.019531 23.601562 C 43.027344 22.640625 43.019531 21.683594 43.019531 20.714844 C 47.796875 20.714844 52.574219 20.714844 57.359375 20.714844 C 58.164062 21.089844 58.453125 21.726562 58.515625 22.605469 C 58.636719 24.316406 60.007812 25.65625 61.734375 25.761719 C 62.601562 25.828125 63.195312 26.152344 63.5625 26.925781 Z M 19.191406 44.28125 C 19.207031 45.621094 20.347656 46.304688 21.441406 45.765625 C 22.710938 45.128906 23.96875 44.46875 25.214844 43.785156 C 25.582031 43.582031 25.859375 43.566406 26.234375 43.777344 C 27.480469 44.46875 28.738281 45.121094 30.007812 45.757812 C 30.921875 46.222656 31.882812 45.878906 32.167969 44.96875 C 32.28125 44.617188 32.25 44.199219 32.199219 43.824219 C 31.996094 42.488281 31.769531 41.152344 31.507812 39.824219 C 31.441406 39.464844 31.546875 39.269531 31.785156 39.039062 C 32.789062 38.078125 33.773438 37.101562 34.777344 36.136719 C 35.265625 35.671875 35.535156 35.136719 35.316406 34.453125 C 35.09375 33.757812 34.558594 33.449219 33.878906 33.351562 C 32.46875 33.148438 31.066406 32.953125 29.664062 32.722656 C 29.460938 32.683594 29.199219 32.511719 29.109375 32.332031 C 28.460938 31.085938 27.847656 29.820312 27.234375 28.558594 C 26.917969 27.921875 26.46875 27.472656 25.71875 27.480469 C 24.988281 27.488281 24.546875 27.921875 24.246094 28.550781 C 23.640625 29.796875 23.015625 31.035156 22.417969 32.289062 C 22.28125 32.578125 22.117188 32.714844 21.78125 32.761719 C 20.371094 32.941406 18.96875 33.15625 17.558594 33.375 C 16.898438 33.472656 16.371094 33.773438 16.15625 34.453125 C 15.9375 35.136719 16.175781 35.671875 16.679688 36.140625 C 17.484375 36.898438 18.261719 37.671875 19.050781 38.445312 C 20.054688 39.425781 20.046875 39.421875 19.792969 40.824219 C 19.566406 42.015625 19.371094 43.230469 19.191406 44.28125 Z M 53.273438 32.925781 C 54.609375 32.925781 55.941406 32.925781 57.285156 32.925781 C 58.273438 32.925781 58.972656 32.300781 58.988281 31.433594 C 59.003906 30.53125 58.296875 29.878906 57.300781 29.871094 C 54.628906 29.871094 51.953125 29.863281 49.28125 29.871094 C 48.300781 29.871094 47.601562 30.511719 47.609375 31.386719 C 47.617188 32.289062 48.292969 32.917969 49.265625 32.917969 C 50.601562 32.925781 51.9375 32.925781 53.273438 32.925781 Z M 53.296875 35.976562 C 51.945312 35.976562 50.585938 35.96875 49.238281 35.976562 C 48.292969 35.984375 47.609375 36.621094 47.609375 37.484375 C 47.609375 38.386719 48.285156 39.023438 49.261719 39.023438 C 51.953125 39.03125 54.636719 39.03125 57.328125 39.023438 C 58.296875 39.023438 59.003906 38.363281 58.988281 37.484375 C 58.972656 36.601562 58.289062 35.976562 57.308594 35.96875 C 55.964844 35.96875 54.628906 35.976562 53.296875 35.976562 Z M 53.296875 42.074219 C 51.945312 42.074219 50.585938 42.066406 49.238281 42.074219 C 48.292969 42.082031 47.609375 42.71875 47.609375 43.582031 C 47.609375 44.484375 48.285156 45.121094 49.261719 45.121094 C 51.953125 45.128906 54.636719 45.128906 57.328125 45.121094 C 58.304688 45.121094 59.003906 44.460938 58.988281 43.582031 C 58.972656 42.699219 58.289062 42.074219 57.308594 42.066406 C 55.964844 42.074219 54.628906 42.074219 53.296875 42.074219 Z M 39.976562 42.554688 C 39.976562 43.09375 39.960938 43.636719 39.984375 44.175781 C 40.019531 44.984375 40.671875 45.613281 41.460938 45.628906 C 42.269531 45.644531 42.984375 45.03125 43.011719 44.203125 C 43.050781 43.125 43.050781 42.046875 43.011719 40.964844 C 42.984375 40.132812 42.269531 39.515625 41.460938 39.539062 C 40.648438 39.5625 40.003906 40.207031 39.984375 41.039062 C 39.960938 41.542969 39.976562 42.050781 39.976562 42.554688 Z M 39.976562 32.371094 C 39.976562 32.371094 39.984375 32.371094 39.976562 32.371094 C 39.984375 32.925781 39.953125 33.488281 39.984375 34.042969 C 40.027344 34.828125 40.671875 35.4375 41.4375 35.460938 C 42.226562 35.484375 42.960938 34.898438 42.996094 34.101562 C 43.050781 32.992188 43.050781 31.875 42.996094 30.757812 C 42.960938 29.925781 42.226562 29.324219 41.421875 29.363281 C 40.636719 29.398438 40.003906 30.039062 39.976562 30.847656 C 39.960938 31.359375 39.976562 31.867188 39.976562 32.371094 Z M 39.976562 32.371094 "/>
<path style=" stroke:none;fill-rule:nonzero;fill:rgb(100%,100%,100%);fill-opacity:1;" d="M 20.992188 35.941406 C 21.773438 35.820312 22.539062 35.671875 23.308594 35.59375 C 23.976562 35.527344 24.390625 35.175781 24.667969 34.597656 C 25.003906 33.90625 25.351562 33.21875 25.738281 32.429688 C 26.121094 33.203125 26.453125 33.878906 26.78125 34.558594 C 27.074219 35.167969 27.511719 35.535156 28.222656 35.601562 C 28.972656 35.671875 29.722656 35.828125 30.488281 35.941406 C 29.976562 36.480469 29.519531 37.011719 29.003906 37.484375 C 28.410156 38.023438 28.164062 38.625 28.351562 39.425781 C 28.515625 40.117188 28.589844 40.824219 28.726562 41.632812 C 28.320312 41.421875 27.996094 41.265625 27.683594 41.09375 C 27.308594 40.898438 26.933594 40.703125 26.566406 40.5 C 26.015625 40.191406 25.476562 40.191406 24.921875 40.5 C 24.246094 40.875 23.558594 41.226562 22.753906 41.648438 C 22.890625 40.800781 22.988281 40.058594 23.144531 39.324219 C 23.289062 38.625 23.101562 38.078125 22.582031 37.582031 C 22.042969 37.078125 21.546875 36.523438 20.992188 35.941406 Z M 20.992188 35.941406 "/>
</g>
</svg>
