<?xml version="1.0" encoding="UTF-8"?>
<svg xmlns="http://www.w3.org/2000/svg" xmlns:xlink="http://www.w3.org/1999/xlink" width="75pt" height="75pt" viewBox="0 0 75 75" version="1.1">
<g id="surface2">
<path style=" stroke:none;fill-rule:nonzero;fill:rgb(96.862745%,57.647059%,11.764706%);fill-opacity:1;" d="M 75 37.53125 C 75.015625 16.824219 58.238281 0.015625 37.53125 0 C 16.824219 -0.015625 0.015625 16.761719 0 37.46875 C -0.015625 58.175781 16.761719 74.984375 37.46875 75 C 58.175781 75.015625 74.984375 58.238281 75 37.53125 Z M 75 37.53125 "/>
<path style=" stroke:none;fill-rule:nonzero;fill:rgb(100%,100%,100%);fill-opacity:1;" d="M 65.152344 17.992188 C 65.144531 28.914062 65.136719 39.832031 65.121094 50.761719 C 63.78125 53.601562 61.46875 54.5625 58.417969 54.464844 C 54.375 54.335938 50.316406 54.425781 46.273438 54.425781 C 45.074219 54.425781 43.867188 54.425781 42.691406 54.425781 C 42.691406 56.199219 42.691406 57.703125 42.683594 59.398438 C 44.308594 59.398438 45.816406 59.398438 47.398438 59.40625 C 47.398438 61.164062 47.398438 62.714844 47.390625 64.328125 C 40.738281 64.320312 34.214844 64.320312 27.621094 64.3125 C 27.621094 62.65625 27.621094 61.101562 27.628906 59.347656 C 29.257812 59.347656 30.765625 59.347656 32.308594 59.355469 C 32.308594 57.609375 32.308594 56.0625 32.316406 54.421875 C 26.773438 54.414062 21.382812 54.421875 15.988281 54.40625 C 11.820312 54.398438 9.921875 52.492188 9.921875 48.328125 C 9.921875 39.066406 9.9375 29.796875 9.945312 20.535156 C 9.953125 15.898438 11.632812 14.210938 16.246094 14.21875 C 30.421875 14.226562 44.585938 14.308594 58.761719 14.199219 C 61.84375 14.167969 63.921875 15.210938 65.152344 17.992188 Z M 60 19.402344 C 44.910156 19.386719 30.046875 19.378906 15.113281 19.363281 C 15.105469 29.378906 15.097656 39.261719 15.089844 49.164062 C 30.136719 49.175781 45.046875 49.183594 59.976562 49.199219 C 59.984375 39.21875 59.992188 29.371094 60 19.402344 Z M 60 19.402344 "/>
</g>
</svg>
