<?xml version="1.0" encoding="UTF-8"?>
<svg xmlns="http://www.w3.org/2000/svg" xmlns:xlink="http://www.w3.org/1999/xlink" width="75pt" height="75pt" viewBox="0 0 75 75" version="1.1">
<g id="surface2">
<path style=" stroke:none;fill-rule:nonzero;fill:rgb(61.960784%,0%,36.470588%);fill-opacity:1;" d="M 75 37.5 C 75 16.792969 58.207031 0 37.5 0 C 16.792969 0 0 16.792969 0 37.5 C 0 58.207031 16.792969 75 37.5 75 C 58.207031 75 75 58.207031 75 37.5 Z M 75 37.5 "/>
<path style=" stroke:none;fill-rule:nonzero;fill:rgb(100%,100%,100%);fill-opacity:1;" d="M 65.144531 17.96875 C 65.144531 28.890625 65.144531 39.808594 65.144531 50.738281 C 63.800781 53.585938 61.492188 54.546875 58.449219 54.449219 C 54.40625 54.324219 50.347656 54.421875 46.304688 54.421875 C 45.105469 54.421875 43.898438 54.421875 42.71875 54.421875 C 42.71875 56.191406 42.71875 57.699219 42.71875 59.390625 C 44.347656 59.390625 45.855469 59.390625 47.4375 59.390625 C 47.4375 61.148438 47.4375 62.699219 47.4375 64.3125 C 40.785156 64.3125 34.261719 64.3125 27.667969 64.3125 C 27.667969 62.65625 27.667969 61.101562 27.667969 59.347656 C 29.296875 59.347656 30.800781 59.347656 32.347656 59.347656 C 32.347656 57.601562 32.347656 56.054688 32.347656 54.414062 C 26.804688 54.414062 21.414062 54.421875 16.019531 54.414062 C 11.851562 54.40625 9.945312 52.5 9.945312 48.34375 C 9.9375 39.082031 9.945312 29.8125 9.945312 20.550781 C 9.945312 15.914062 11.625 14.226562 16.238281 14.226562 C 30.414062 14.226562 44.578125 14.296875 58.753906 14.175781 C 61.828125 14.152344 63.90625 15.1875 65.144531 17.96875 Z M 59.992188 19.386719 C 44.902344 19.386719 30.039062 19.386719 15.105469 19.386719 C 15.105469 29.398438 15.105469 39.285156 15.105469 49.183594 C 30.148438 49.183594 45.058594 49.183594 59.992188 49.183594 C 59.992188 39.195312 59.992188 29.355469 59.992188 19.386719 Z M 59.992188 19.386719 "/>
<path style=" stroke:none;fill-rule:nonzero;fill:rgb(100%,100%,100%);fill-opacity:1;" d="M 43.640625 28.738281 C 43.640625 32.113281 40.910156 34.84375 37.539062 34.84375 C 34.164062 34.84375 31.433594 32.113281 31.433594 28.738281 C 31.433594 25.367188 34.164062 22.636719 37.539062 22.636719 C 40.910156 22.636719 43.640625 25.367188 43.640625 28.738281 Z M 43.640625 28.738281 "/>
<path style=" stroke:none;fill-rule:nonzero;fill:rgb(100%,100%,100%);fill-opacity:1;" d="M 22.320312 46.183594 C 24.613281 40.066406 30.515625 35.714844 37.433594 35.714844 C 44.347656 35.714844 50.25 40.074219 52.546875 46.183594 C 52.695312 46.175781 22.171875 46.175781 22.320312 46.183594 Z M 22.320312 46.183594 "/>
</g>
</svg>
