<?xml version="1.0" encoding="UTF-8"?>
<svg xmlns="http://www.w3.org/2000/svg" xmlns:xlink="http://www.w3.org/1999/xlink" width="75pt" height="75pt" viewBox="0 0 75 75" version="1.1">
<g id="surface2">
<path style=" stroke:none;fill-rule:nonzero;fill:rgb(4.313725%,25.098039%,66.666667%);fill-opacity:1;" d="M 75 37.5 C 75 16.792969 58.207031 0 37.5 0 C 16.792969 0 0 16.792969 0 37.5 C 0 58.207031 16.792969 75 37.5 75 C 58.207031 75 75 58.207031 75 37.5 Z M 75 37.5 "/>
<path style=" stroke:none;fill-rule:nonzero;fill:rgb(100%,100%,100%);fill-opacity:1;" d="M 65.421875 23.078125 C 65.121094 23.59375 64.828125 24.113281 64.53125 24.628906 C 64.148438 25.289062 63.757812 25.949219 63.335938 26.671875 C 63.246094 26.476562 63.1875 26.378906 63.140625 26.273438 C 59.152344 17.484375 52.441406 12.023438 43.019531 9.914062 C 41.746094 9.628906 40.433594 9.523438 39.140625 9.335938 C 37.988281 9.335938 36.832031 9.335938 35.683594 9.335938 C 34.546875 9.496094 33.398438 9.613281 32.273438 9.824219 C 27.816406 10.664062 23.8125 12.488281 20.273438 15.328125 C 19.636719 15.847656 19.523438 16.589844 19.980469 17.167969 C 20.453125 17.761719 21.21875 17.820312 21.878906 17.308594 C 22.175781 17.078125 22.453125 16.824219 22.761719 16.605469 C 28.703125 12.398438 35.308594 10.972656 42.398438 12.382812 C 49.859375 13.867188 55.558594 18.023438 59.445312 24.59375 C 59.925781 25.394531 60.316406 26.25 60.742188 27.082031 C 59.429688 26.476562 58.238281 25.753906 57.015625 25.101562 C 56.699219 24.9375 56.25 24.890625 55.898438 24.960938 C 55.363281 25.066406 55.078125 25.523438 55.042969 26.054688 C 54.996094 26.625 55.304688 27.03125 55.792969 27.316406 C 57.921875 28.546875 60.050781 29.78125 62.191406 31.003906 C 62.917969 31.425781 63.621094 31.238281 64.074219 30.488281 C 64.566406 29.671875 65.023438 28.835938 65.511719 28.011719 C 66.34375 26.601562 67.175781 25.191406 68.015625 23.773438 C 68.015625 23.496094 68.015625 23.21875 68.015625 22.941406 C 67.140625 21.710938 66.179688 21.765625 65.421875 23.078125 Z M 65.421875 23.078125 "/>
<path style=" stroke:none;fill-rule:nonzero;fill:rgb(100%,100%,100%);fill-opacity:1;" d="M 28.777344 61.230469 C 26.0625 60.292969 23.617188 58.882812 21.398438 57.066406 C 13.117188 50.308594 9.921875 39.1875 13.394531 29.085938 C 13.875 27.691406 14.535156 26.363281 15.113281 25.003906 C 15.179688 25.019531 15.253906 25.035156 15.324219 25.050781 C 15.628906 26.210938 15.9375 27.375 16.253906 28.53125 C 16.5 29.421875 17.109375 29.835938 17.859375 29.632812 C 18.613281 29.429688 18.953125 28.769531 18.71875 27.890625 C 18.097656 25.550781 17.46875 23.210938 16.828125 20.878906 C 16.574219 19.957031 15.984375 19.628906 15.074219 19.875 C 12.796875 20.488281 10.515625 21.113281 8.226562 21.699219 C 7.621094 21.855469 7.171875 22.117188 6.921875 22.695312 C 6.921875 22.933594 6.921875 23.175781 6.921875 23.40625 C 7.539062 24.308594 7.84375 24.414062 8.925781 24.136719 C 9.171875 24.066406 9.421875 24 9.675781 23.933594 C 10.914062 23.609375 12.140625 23.28125 13.460938 22.933594 C 13.328125 23.175781 13.253906 23.308594 13.175781 23.445312 C 10.074219 28.875 8.878906 34.703125 9.699219 40.890625 C 10.640625 47.992188 13.835938 53.925781 19.273438 58.621094 C 21.847656 60.839844 24.726562 62.519531 27.9375 63.636719 C 28.835938 63.953125 29.585938 63.613281 29.78125 62.8125 C 29.960938 62.121094 29.585938 61.515625 28.777344 61.230469 Z M 28.777344 61.230469 "/>
<path style=" stroke:none;fill-rule:nonzero;fill:rgb(100%,100%,100%);fill-opacity:1;" d="M 64.261719 36.066406 C 63.457031 36.03125 62.953125 36.585938 62.910156 37.539062 C 62.902344 37.679688 62.902344 37.816406 62.902344 37.957031 C 62.878906 39.9375 62.640625 41.886719 62.085938 43.785156 C 59.160156 53.675781 52.648438 59.820312 42.644531 62.257812 C 41.640625 62.503906 40.597656 62.578125 39.570312 62.738281 C 39.644531 62.445312 39.773438 62.300781 39.90625 62.167969 C 40.648438 61.417969 41.40625 60.683594 42.136719 59.925781 C 42.699219 59.332031 42.699219 58.597656 42.171875 58.066406 C 41.648438 57.539062 40.921875 57.5625 40.328125 58.15625 C 38.691406 59.78125 37.066406 61.417969 35.445312 63.050781 C 34.746094 63.757812 34.769531 64.417969 35.476562 65.121094 C 36.976562 66.628906 38.476562 68.136719 39.988281 69.636719 C 40.28125 69.929688 40.628906 70.164062 40.949219 70.425781 C 41.191406 70.425781 41.429688 70.425781 41.664062 70.425781 C 41.820312 70.3125 41.984375 70.207031 42.136719 70.085938 C 42.726562 69.601562 42.71875 68.78125 42.097656 68.152344 C 41.183594 67.222656 40.261719 66.300781 39.269531 65.300781 C 39.601562 65.265625 39.832031 65.242188 40.066406 65.21875 C 46.679688 64.566406 52.386719 61.933594 57.105469 57.269531 C 62.558594 51.871094 65.316406 45.285156 65.488281 37.621094 C 65.488281 36.691406 65.023438 36.105469 64.261719 36.066406 Z M 64.261719 36.066406 "/>
<path style=" stroke:none;fill-rule:nonzero;fill:rgb(100%,100%,100%);fill-opacity:1;" d="M 55.695312 37.523438 C 55.738281 27.398438 47.625 19.183594 37.53125 19.132812 C 27.554688 19.058594 19.523438 27.140625 19.253906 36.660156 C 18.953125 47.199219 27.261719 55.546875 37.460938 55.566406 C 47.390625 55.597656 55.648438 47.40625 55.695312 37.523438 Z M 35.933594 47.773438 C 35.917969 47.378906 35.933594 46.972656 35.933594 46.46875 C 34.972656 46.46875 34.058594 46.476562 33.140625 46.46875 C 32.324219 46.460938 31.71875 46.078125 31.5 45.457031 C 31.117188 44.386719 31.859375 43.410156 33.121094 43.386719 C 34.851562 43.363281 36.585938 43.402344 38.316406 43.363281 C 39.59375 43.34375 40.53125 42.308594 40.492188 41.039062 C 40.453125 39.839844 39.554688 38.917969 38.308594 38.835938 C 37.816406 38.804688 37.3125 38.820312 36.816406 38.820312 C 34.09375 38.820312 31.882812 36.988281 31.492188 34.433594 C 31.074219 31.679688 32.585938 29.21875 35.25 28.460938 C 35.851562 28.289062 36 28.035156 35.941406 27.488281 C 35.910156 27.1875 35.925781 26.863281 35.96875 26.566406 C 36.089844 25.726562 36.734375 25.15625 37.507812 25.175781 C 38.265625 25.191406 38.871094 25.738281 38.96875 26.558594 C 39.03125 27.066406 38.976562 27.59375 38.976562 28.238281 C 40.027344 28.238281 40.941406 28.230469 41.863281 28.238281 C 42.863281 28.253906 43.558594 28.890625 43.546875 29.765625 C 43.53125 30.601562 42.824219 31.238281 41.863281 31.246094 C 40.230469 31.261719 38.585938 31.246094 36.953125 31.253906 C 35.476562 31.261719 34.46875 32.167969 34.460938 33.496094 C 34.453125 34.875 35.453125 35.761719 36.953125 35.820312 C 37.964844 35.859375 39.015625 35.859375 39.96875 36.148438 C 42.195312 36.832031 43.664062 39.082031 43.546875 41.332031 C 43.417969 43.710938 41.804688 45.683594 39.515625 46.261719 C 39.382812 46.296875 39.238281 46.335938 39.015625 46.394531 C 39.015625 46.835938 39.03125 47.300781 39.015625 47.773438 C 38.96875 48.808594 38.355469 49.476562 37.476562 49.476562 C 36.585938 49.476562 35.984375 48.816406 35.933594 47.773438 Z M 35.933594 47.773438 "/>
</g>
</svg>
