<?xml version="1.0" encoding="UTF-8"?>
<svg xmlns="http://www.w3.org/2000/svg" xmlns:xlink="http://www.w3.org/1999/xlink" width="75pt" height="75pt" viewBox="0 0 75 75" version="1.1">
<g id="surface2">
<path style=" stroke:none;fill-rule:nonzero;fill:rgb(49.019608%,0.784314%,38.823529%);fill-opacity:1;" d="M 75 37.5 C 75 16.792969 58.207031 0 37.5 0 C 16.792969 0 0 16.792969 0 37.5 C 0 58.207031 16.792969 75 37.5 75 C 58.207031 75 75 58.207031 75 37.5 Z M 75 37.5 "/>
<path style=" stroke:none;fill-rule:nonzero;fill:rgb(100%,100%,100%);fill-opacity:1;" d="M 60.210938 17.804688 C 60.285156 12.765625 58.597656 11.527344 54.554688 11.835938 C 53.542969 11.910156 52.753906 12.757812 52.761719 13.769531 C 52.761719 14.683594 52.769531 15.601562 52.753906 16.523438 C 52.695312 20.691406 50.558594 22.898438 46.441406 22.925781 C 40.769531 22.972656 35.101562 22.972656 29.429688 22.925781 C 25.296875 22.898438 23.160156 20.699219 23.101562 16.53125 C 23.085938 15.621094 23.085938 14.707031 23.09375 13.761719 C 23.09375 12.710938 22.261719 11.851562 21.210938 11.820312 C 20.371094 11.796875 19.582031 11.796875 18.796875 11.894531 C 17.03125 12.121094 16.003906 13.273438 15.75 15.046875 C 15.667969 15.628906 15.703125 16.230469 15.703125 16.824219 C 15.703125 30.796875 15.742188 44.761719 15.660156 58.734375 C 15.644531 60.699219 16.164062 62.183594 17.578125 63.285156 C 17.910156 63.539062 18.324219 63.667969 18.742188 63.667969 L 57.105469 63.667969 C 57.515625 63.667969 57.921875 63.546875 58.246094 63.300781 C 59.761719 62.144531 60.1875 60.539062 60.171875 58.53125 C 60.105469 44.949219 60.007812 31.371094 60.210938 17.804688 Z M 37.875 45.40625 L 30.359375 52.921875 C 30.050781 53.226562 29.648438 53.386719 29.242188 53.386719 C 28.835938 53.386719 28.433594 53.226562 28.125 52.921875 L 24.171875 48.96875 C 23.558594 48.351562 23.558594 47.347656 24.171875 46.734375 C 24.789062 46.117188 25.792969 46.117188 26.40625 46.734375 L 29.242188 49.566406 L 35.632812 43.175781 C 36.246094 42.5625 37.253906 42.5625 37.867188 43.175781 C 38.488281 43.785156 38.488281 44.789062 37.875 45.40625 Z M 37.875 31.175781 L 30.359375 38.683594 C 30.050781 38.992188 29.648438 39.148438 29.242188 39.148438 C 28.835938 39.148438 28.433594 38.992188 28.125 38.683594 L 24.171875 34.734375 C 23.558594 34.117188 23.558594 33.113281 24.171875 32.496094 C 24.789062 31.882812 25.792969 31.882812 26.40625 32.496094 L 29.242188 35.332031 L 35.632812 28.941406 C 36.246094 28.328125 37.253906 28.328125 37.867188 28.941406 C 38.488281 29.558594 38.488281 30.554688 37.875 31.175781 Z M 52.171875 51.007812 L 42.292969 51.007812 C 41.421875 51.007812 40.710938 50.300781 40.710938 49.425781 C 40.710938 48.546875 41.414062 47.84375 42.292969 47.84375 L 52.175781 47.84375 C 53.046875 47.84375 53.761719 48.546875 53.761719 49.425781 C 53.761719 50.300781 53.046875 51.007812 52.171875 51.007812 Z M 52.171875 35.59375 L 42.292969 35.59375 C 41.421875 35.59375 40.710938 34.890625 40.710938 34.011719 C 40.710938 33.140625 41.414062 32.429688 42.292969 32.429688 L 52.175781 32.429688 C 53.046875 32.429688 53.761719 33.136719 53.761719 34.011719 C 53.753906 34.882812 53.046875 35.59375 52.171875 35.59375 Z M 52.171875 35.59375 "/>
<path style=" stroke:none;fill-rule:nonzero;fill:rgb(100%,100%,100%);fill-opacity:1;" d="M 29.144531 19.175781 C 35.003906 19.175781 40.859375 19.171875 46.71875 19.183594 C 48.390625 19.183594 49.085938 18.324219 49.074219 16.726562 C 49.058594 15.082031 49.074219 13.441406 49.074219 11.789062 C 49.074219 8.242188 48.945312 8.160156 45.40625 8.078125 C 44.566406 8.054688 43.589844 7.875 42.9375 7.410156 C 41.699219 6.523438 41.902344 4.351562 39.921875 4.351562 C 37.941406 4.351562 37.402344 4.351562 36.351562 4.351562 C 34.785156 4.351562 34.550781 5.199219 34.191406 5.902344 C 32.992188 8.226562 31.027344 8.226562 28.882812 8.128906 C 27.53125 8.070312 26.84375 8.8125 26.851562 10.207031 C 26.871094 12.441406 26.886719 14.675781 26.84375 16.914062 C 26.804688 18.539062 27.636719 19.175781 29.144531 19.175781 Z M 29.144531 19.175781 "/>
</g>
</svg>
