<?xml version="1.0" encoding="UTF-8"?>
<svg xmlns="http://www.w3.org/2000/svg" xmlns:xlink="http://www.w3.org/1999/xlink" width="75pt" height="75pt" viewBox="0 0 75 75" version="1.1">
<g id="surface2">
<path style=" stroke:none;fill-rule:nonzero;fill:rgb(0%,44.313725%,73.72549%);fill-opacity:1;" d="M 75 37.5 C 75 16.792969 58.207031 0 37.5 0 C 16.792969 0 0 16.792969 0 37.5 C 0 58.207031 16.792969 75 37.5 75 C 58.207031 75 75 58.207031 75 37.5 Z M 75 37.5 "/>
<path style=" stroke:none;fill-rule:nonzero;fill:rgb(100%,100%,100%);fill-opacity:1;" d="M 65.0625 26.234375 C 65.0625 33.285156 65.0625 40.335938 65.0625 47.386719 C 64.695312 48.15625 64.09375 48.480469 63.226562 48.539062 C 61.5 48.652344 60.074219 50.046875 60.007812 51.699219 C 59.96875 52.589844 59.65625 53.203125 58.859375 53.585938 C 54.082031 53.585938 49.304688 53.585938 44.519531 53.585938 C 44.519531 52.613281 44.527344 51.628906 44.519531 50.65625 C 44.511719 49.6875 43.851562 49.003906 42.96875 49.019531 C 42.105469 49.035156 41.476562 49.710938 41.476562 50.65625 C 41.46875 51.628906 41.476562 52.613281 41.476562 53.585938 C 34.050781 53.585938 26.632812 53.585938 19.207031 53.585938 C 18.425781 53.226562 18.121094 52.621094 18.050781 51.75 C 17.910156 49.980469 16.582031 48.652344 14.835938 48.53125 C 13.964844 48.472656 13.363281 48.15625 13.003906 47.378906 C 13.003906 40.328125 13.003906 33.277344 13.003906 26.226562 C 13.359375 25.46875 13.933594 25.132812 14.789062 25.078125 C 16.539062 24.976562 17.933594 23.632812 18.050781 21.90625 C 18.113281 21.023438 18.40625 20.398438 19.207031 20.023438 C 26.632812 20.023438 34.050781 20.023438 41.476562 20.023438 C 41.476562 20.984375 41.46875 21.945312 41.476562 22.914062 C 41.484375 23.902344 42.097656 24.59375 42.96875 24.601562 C 43.867188 24.613281 44.511719 23.917969 44.519531 22.914062 C 44.527344 21.953125 44.519531 20.992188 44.519531 20.023438 C 49.296875 20.023438 54.074219 20.023438 58.859375 20.023438 C 59.664062 20.398438 59.953125 21.039062 60.015625 21.914062 C 60.136719 23.625 61.507812 24.96875 63.234375 25.074219 C 64.101562 25.140625 64.695312 25.460938 65.0625 26.234375 Z M 20.691406 43.597656 C 20.707031 44.941406 21.847656 45.621094 22.941406 45.082031 C 24.210938 44.445312 25.46875 43.785156 26.714844 43.101562 C 27.082031 42.898438 27.359375 42.886719 27.734375 43.09375 C 28.980469 43.785156 30.238281 44.4375 31.507812 45.074219 C 32.421875 45.539062 33.382812 45.195312 33.667969 44.289062 C 33.78125 43.933594 33.75 43.515625 33.699219 43.140625 C 33.496094 41.804688 33.269531 40.46875 33.007812 39.136719 C 32.941406 38.773438 33.046875 38.578125 33.285156 38.347656 C 34.289062 37.386719 35.273438 36.414062 36.277344 35.445312 C 36.765625 34.980469 37.035156 34.449219 36.816406 33.765625 C 36.59375 33.066406 36.058594 32.761719 35.378906 32.664062 C 33.96875 32.460938 32.566406 32.265625 31.164062 32.03125 C 30.960938 31.996094 30.699219 31.824219 30.609375 31.640625 C 29.960938 30.398438 29.347656 29.128906 28.734375 27.871094 C 28.417969 27.234375 27.96875 26.78125 27.21875 26.789062 C 26.488281 26.796875 26.046875 27.234375 25.746094 27.863281 C 25.140625 29.109375 24.515625 30.34375 23.917969 31.597656 C 23.78125 31.890625 23.617188 32.023438 23.28125 32.070312 C 21.871094 32.25 20.46875 32.46875 19.058594 32.683594 C 18.398438 32.78125 17.871094 33.082031 17.65625 33.765625 C 17.4375 34.449219 17.675781 34.980469 18.179688 35.453125 C 18.984375 36.210938 19.761719 36.984375 20.550781 37.753906 C 21.554688 38.738281 21.546875 38.730469 21.292969 40.132812 C 21.066406 41.324219 20.871094 42.546875 20.691406 43.597656 Z M 54.773438 32.234375 C 56.109375 32.234375 57.441406 32.234375 58.785156 32.234375 C 59.773438 32.234375 60.472656 31.613281 60.488281 30.742188 C 60.503906 29.84375 59.796875 29.191406 58.800781 29.183594 C 56.128906 29.183594 53.453125 29.175781 50.78125 29.183594 C 49.800781 29.183594 49.101562 29.820312 49.109375 30.699219 C 49.117188 31.597656 49.792969 32.226562 50.765625 32.226562 C 52.09375 32.242188 53.4375 32.234375 54.773438 32.234375 Z M 54.796875 35.289062 C 53.445312 35.289062 52.085938 35.28125 50.738281 35.289062 C 49.792969 35.296875 49.109375 35.933594 49.109375 36.796875 C 49.109375 37.695312 49.785156 38.332031 50.761719 38.332031 C 53.453125 38.339844 56.136719 38.339844 58.828125 38.332031 C 59.796875 38.332031 60.503906 37.671875 60.488281 36.796875 C 60.472656 35.910156 59.789062 35.289062 58.808594 35.28125 C 57.464844 35.289062 56.128906 35.289062 54.796875 35.289062 Z M 54.796875 41.390625 C 53.445312 41.390625 52.085938 41.386719 50.738281 41.390625 C 49.792969 41.398438 49.109375 42.039062 49.109375 42.898438 C 49.109375 43.800781 49.785156 44.4375 50.761719 44.4375 C 53.453125 44.445312 56.136719 44.445312 58.828125 44.4375 C 59.804688 44.4375 60.503906 43.777344 60.488281 42.898438 C 60.472656 42.015625 59.789062 41.390625 58.808594 41.386719 C 57.464844 41.386719 56.128906 41.390625 54.796875 41.390625 Z M 41.476562 41.871094 C 41.476562 42.414062 41.460938 42.953125 41.484375 43.492188 C 41.519531 44.300781 42.171875 44.933594 42.960938 44.949219 C 43.769531 44.960938 44.484375 44.347656 44.511719 43.523438 C 44.550781 42.441406 44.550781 41.363281 44.511719 40.28125 C 44.484375 39.449219 43.769531 38.835938 42.960938 38.859375 C 42.148438 38.878906 41.503906 39.523438 41.484375 40.359375 C 41.460938 40.851562 41.476562 41.363281 41.476562 41.871094 Z M 41.476562 31.6875 C 41.484375 32.242188 41.453125 32.804688 41.484375 33.359375 C 41.527344 34.148438 42.171875 34.753906 42.9375 34.777344 C 43.726562 34.800781 44.460938 34.214844 44.496094 33.421875 C 44.550781 32.308594 44.550781 31.191406 44.496094 30.074219 C 44.460938 29.242188 43.726562 28.640625 42.921875 28.679688 C 42.136719 28.71875 41.503906 29.355469 41.476562 30.164062 C 41.460938 30.667969 41.476562 31.175781 41.476562 31.6875 Z M 41.476562 31.6875 "/>
<path style=" stroke:none;fill-rule:nonzero;fill:rgb(100%,100%,100%);fill-opacity:1;" d="M 22.492188 35.25 C 23.273438 35.128906 24.039062 34.980469 24.808594 34.90625 C 25.476562 34.835938 25.890625 34.484375 26.167969 33.90625 C 26.503906 33.21875 26.851562 32.527344 27.238281 31.738281 C 27.621094 32.511719 27.953125 33.1875 28.28125 33.871094 C 28.574219 34.476562 29.011719 34.84375 29.722656 34.914062 C 30.472656 34.980469 31.222656 35.136719 31.988281 35.25 C 31.476562 35.789062 31.019531 36.324219 30.503906 36.796875 C 29.910156 37.335938 29.664062 37.933594 29.851562 38.738281 C 30.015625 39.425781 30.089844 40.132812 30.226562 40.941406 C 29.820312 40.734375 29.496094 40.574219 29.183594 40.402344 C 28.808594 40.207031 28.433594 40.011719 28.066406 39.808594 C 27.515625 39.503906 26.976562 39.503906 26.421875 39.808594 C 25.746094 40.183594 25.058594 40.539062 24.253906 40.957031 C 24.390625 40.109375 24.488281 39.367188 24.644531 38.632812 C 24.789062 37.933594 24.601562 37.386719 24.082031 36.890625 C 23.542969 36.390625 23.046875 35.835938 22.492188 35.25 Z M 22.492188 35.25 "/>
</g>
</svg>
