<?xml version="1.0" encoding="UTF-8"?>
<svg xmlns="http://www.w3.org/2000/svg" xmlns:xlink="http://www.w3.org/1999/xlink" width="75pt" height="75pt" viewBox="0 0 75 75" version="1.1">
<g id="surface2">
<path style=" stroke:none;fill-rule:nonzero;fill:rgb(96.862745%,57.647059%,11.764706%);fill-opacity:1;" d="M 75 37.5 C 75 16.792969 58.207031 0 37.5 0 C 16.792969 0 0 16.792969 0 37.5 C 0 58.207031 16.792969 75 37.5 75 C 58.207031 75 75 58.207031 75 37.5 Z M 75 37.5 "/>
<path style=" stroke:none;fill-rule:nonzero;fill:rgb(100%,100%,100%);fill-opacity:1;" d="M 49.265625 52.246094 C 47.65625 52.808594 46.253906 52.484375 45.03125 51.351562 C 43.769531 50.183594 43.523438 48.71875 43.988281 47.136719 C 45.007812 43.65625 46.191406 40.359375 49.175781 37.875 C 51.847656 35.65625 54.121094 32.953125 56.648438 30.539062 C 57.601562 29.625 58.09375 28.710938 57.996094 27.34375 C 57.878906 25.710938 57.96875 24.058594 57.96875 22.164062 C 55.453125 22.164062 53.085938 22.171875 50.714844 22.164062 C 44.503906 22.148438 45.039062 22.792969 45.039062 16.402344 C 45.039062 14.015625 45.039062 11.625 45.039062 9.238281 C 36.585938 9.238281 28.125 9.238281 19.671875 9.238281 C 16.882812 10.410156 15.9375 12.515625 15.953125 15.503906 C 16.042969 29.707031 15.988281 43.921875 15.988281 58.125 C 15.988281 62.722656 17.664062 64.371094 22.320312 64.371094 C 32.242188 64.371094 42.164062 64.371094 52.085938 64.371094 C 56.109375 64.371094 57.9375 62.566406 57.953125 58.589844 C 57.96875 55.066406 57.953125 51.53125 57.953125 47.378906 C 55.523438 50.59375 52.28125 51.1875 49.265625 52.246094 Z M 24.800781 25.410156 C 28.34375 25.417969 31.890625 25.417969 35.429688 25.417969 C 38.910156 25.417969 42.398438 25.441406 45.878906 25.410156 C 47.109375 25.402344 48.234375 25.640625 48.1875 27.082031 C 48.148438 28.359375 47.085938 28.671875 45.921875 28.671875 C 38.894531 28.664062 31.875 28.671875 24.847656 28.664062 C 23.664062 28.664062 22.523438 28.460938 22.566406 26.949219 C 22.597656 25.546875 23.683594 25.410156 24.800781 25.410156 Z M 39.710938 35.039062 C 37.148438 35.03125 34.582031 35.039062 32.015625 35.039062 C 29.511719 35.039062 27 35.136719 24.511719 34.972656 C 23.828125 34.925781 22.792969 34.183594 22.640625 33.578125 C 22.34375 32.363281 23.371094 31.882812 24.464844 31.882812 C 29.59375 31.859375 34.734375 31.816406 39.863281 31.941406 C 40.5 31.957031 41.542969 32.851562 41.65625 33.472656 C 41.859375 34.6875 40.816406 35.039062 39.710938 35.039062 Z M 24.839844 38.28125 C 27.226562 38.289062 29.617188 38.28125 32.003906 38.28125 C 34.515625 38.28125 37.027344 38.28125 39.53125 38.28125 C 40.679688 38.28125 41.714844 38.578125 41.707031 39.9375 C 41.691406 41.296875 40.640625 41.578125 39.511719 41.578125 C 34.613281 41.585938 29.707031 41.585938 24.808594 41.578125 C 23.699219 41.578125 22.597656 41.390625 22.558594 39.996094 C 22.515625 38.503906 23.632812 38.28125 24.839844 38.28125 Z M 24.449219 48 C 23.363281 47.992188 22.484375 47.558594 22.558594 46.273438 C 22.628906 45.089844 23.46875 44.828125 24.496094 44.835938 C 27.058594 44.851562 29.625 44.84375 32.199219 44.84375 C 34.703125 44.84375 37.207031 44.859375 39.710938 44.835938 C 40.828125 44.828125 41.859375 45.1875 41.632812 46.402344 C 41.519531 47.023438 40.484375 47.925781 39.847656 47.941406 C 34.71875 48.066406 29.578125 48.023438 24.449219 48 Z M 48.136719 56.101562 C 48.039062 56.714844 46.980469 57.59375 46.320312 57.621094 C 43.28125 57.789062 40.230469 57.703125 37.183594 57.683594 C 36.136719 57.675781 35.21875 57.140625 35.496094 56.0625 C 35.664062 55.417969 36.59375 54.636719 37.273438 54.523438 C 38.761719 54.292969 40.3125 54.449219 41.835938 54.449219 C 43.296875 54.449219 44.761719 54.449219 46.222656 54.449219 C 47.355469 54.457031 48.324219 54.984375 48.136719 56.101562 Z M 48.136719 56.101562 "/>
<path style=" stroke:none;fill-rule:nonzero;fill:rgb(100%,100%,100%);fill-opacity:1;" d="M 49.816406 9.238281 C 49.328125 9.238281 48.832031 9.238281 48.34375 9.238281 C 48.34375 12.398438 48.34375 15.554688 48.34375 18.75 C 51.628906 18.75 54.71875 18.75 58.246094 18.75 C 56.609375 14.265625 53.175781 11.789062 49.816406 9.238281 Z M 49.816406 9.238281 "/>
<path style=" stroke:none;fill-rule:nonzero;fill:rgb(100%,100%,100%);fill-opacity:1;" d="M 63.546875 28.335938 C 64.988281 29.828125 66.40625 31.304688 67.957031 32.917969 C 69.039062 31.738281 70.085938 30.601562 71.136719 29.460938 C 71.519531 29.078125 71.496094 28.6875 71.390625 28.296875 C 71.144531 27.398438 70.640625 26.566406 69.90625 25.988281 C 67.828125 24.367188 65.714844 25.171875 63.546875 28.335938 Z M 63.546875 28.335938 "/>
<path style=" stroke:none;fill-rule:nonzero;fill:rgb(100%,100%,100%);fill-opacity:1;" d="M 50.722656 41.398438 C 52.042969 42.75 53.46875 44.21875 54.789062 45.570312 C 58.3125 42.066406 61.800781 38.601562 65.203125 35.226562 C 63.871094 33.789062 62.503906 32.308594 61.140625 30.839844 C 57.503906 34.523438 54.082031 37.996094 50.722656 41.398438 Z M 50.722656 41.398438 "/>
<path style=" stroke:none;fill-rule:nonzero;fill:rgb(100%,100%,100%);fill-opacity:1;" d="M 48.367188 49.117188 C 49.566406 48.742188 50.746094 48.316406 51.644531 48.007812 C 50.550781 46.703125 49.523438 45.488281 48.382812 44.121094 C 47.925781 45.511719 47.496094 46.703125 47.144531 47.917969 C 46.835938 48.988281 47.273438 49.453125 48.367188 49.117188 Z M 48.367188 49.117188 "/>
</g>
</svg>
