<?xml version="1.0" encoding="UTF-8"?>
<svg xmlns="http://www.w3.org/2000/svg" xmlns:xlink="http://www.w3.org/1999/xlink" width="75pt" height="75pt" viewBox="0 0 75 75" version="1.1">
<g id="surface2">
<path style=" stroke:none;fill-rule:nonzero;fill:rgb(61.960784%,0%,36.470588%);fill-opacity:1;" d="M 75 37.5 C 75 16.792969 58.207031 0 37.5 0 C 16.792969 0 0 16.792969 0 37.5 C 0 58.207031 16.792969 75 37.5 75 C 58.207031 75 75 58.207031 75 37.5 Z M 75 37.5 "/>
<path style=" stroke:none;fill-rule:nonzero;fill:rgb(100%,100%,100%);fill-opacity:1;" d="M 58.574219 46.695312 C 58.539062 50.96875 58.710938 54.9375 62.722656 57.441406 C 61.175781 58.539062 57.046875 58.988281 55.148438 58.171875 C 55.566406 60.9375 57.046875 62.863281 59.273438 64.328125 C 55.636719 65.910156 50.242188 64.53125 46.941406 61.207031 C 41.683594 64.28125 36.40625 64.28125 31.117188 61.199219 C 27.816406 65.265625 23.421875 65.113281 18.585938 64.484375 C 21 62.871094 22.5 60.96875 22.921875 58.230469 C 20.203125 59.265625 17.765625 58.265625 15.164062 57.5625 C 19.386719 54.960938 19.558594 50.949219 19.484375 46.703125 C 16.640625 47.101562 15.503906 45.316406 14.820312 43.171875 C 14.289062 41.488281 13.90625 39.726562 13.726562 37.972656 C 13.394531 34.6875 14.054688 33.683594 17.078125 32.289062 C 17.078125 30.140625 16.898438 27.9375 17.109375 25.777344 C 17.894531 17.820312 23.511719 12.390625 31.460938 11.761719 C 32.414062 11.683594 33.195312 11.421875 33.988281 10.867188 C 37.214844 8.625 40.761719 8.113281 44.527344 9.179688 C 53.925781 11.835938 59.023438 18.1875 60.390625 27.710938 C 60.578125 29.003906 60.699219 30.300781 60.789062 31.597656 C 60.824219 32.113281 60.96875 32.363281 61.484375 32.542969 C 63.457031 33.226562 64.386719 34.550781 64.402344 36.628906 C 64.417969 38.910156 64.058594 41.128906 63.246094 43.261719 C 62.46875 45.335938 61.386719 47.101562 58.574219 46.695312 Z M 55.621094 46.273438 C 54.652344 45.816406 53.78125 45.269531 52.828125 44.96875 C 49.175781 43.800781 45.515625 42.644531 41.828125 41.601562 C 40.078125 41.109375 38.273438 41.015625 36.488281 41.699219 C 32.574219 43.199219 28.640625 44.632812 24.71875 46.109375 C 24.074219 46.351562 23.453125 46.648438 22.746094 46.957031 C 24.976562 51.757812 27.71875 56.015625 32.183594 58.890625 C 36.796875 61.867188 41.476562 61.816406 46.035156 58.792969 C 50.632812 55.761719 53.414062 51.300781 55.621094 46.273438 Z M 55.539062 37.378906 C 50.863281 35.828125 48.53125 32.039062 46.273438 27.976562 C 45.335938 29.84375 45.570312 31.539062 46.058594 33.292969 C 40.222656 33.203125 35.574219 31.191406 32.992188 25.515625 C 32.59375 26.199219 32.28125 26.746094 31.949219 27.277344 C 30.578125 29.503906 29.046875 31.605469 26.949219 33.226562 C 25.148438 34.613281 23.183594 35.445312 20.84375 35.015625 C 20.675781 34.988281 20.496094 35.039062 20.296875 35.054688 C 20.347656 35.210938 20.355469 35.308594 20.40625 35.386719 C 22.140625 38.078125 23.894531 40.769531 25.613281 43.476562 C 25.949219 44.011719 26.273438 43.785156 26.65625 43.640625 C 29.683594 42.503906 32.691406 41.289062 35.765625 40.273438 C 37.09375 39.839844 38.59375 39.523438 39.953125 39.699219 C 42.328125 39.996094 44.671875 40.65625 46.996094 41.265625 C 48.703125 41.707031 50.371094 42.308594 52.085938 42.847656 C 53.203125 41.085938 54.300781 39.335938 55.539062 37.378906 Z M 56.683594 43.515625 C 57.128906 43.703125 57.523438 43.890625 57.929688 44.046875 C 59.519531 44.664062 60.097656 44.445312 60.773438 42.890625 C 61.679688 40.824219 61.988281 38.632812 61.972656 36.390625 C 61.964844 35.484375 61.363281 34.964844 60.496094 34.769531 C 59.761719 34.597656 59.113281 34.492188 58.664062 35.378906 C 58.199219 36.300781 57.546875 37.132812 56.992188 38.015625 C 55.875 39.808594 54.773438 41.617188 53.625 43.484375 C 54.511719 43.898438 55.328125 44.28125 56.167969 44.671875 C 56.363281 44.257812 56.511719 43.921875 56.683594 43.515625 Z M 24.335938 44.496094 C 22.289062 41.28125 20.316406 38.175781 18.328125 35.085938 C 18.21875 34.914062 17.925781 34.71875 17.753906 34.746094 C 16.949219 34.875 16.265625 35.234375 16.15625 36.136719 C 15.832031 38.8125 16.523438 41.289062 17.707031 43.65625 C 17.976562 44.199219 18.441406 44.453125 19.050781 44.289062 C 19.835938 44.078125 20.609375 43.835938 21.425781 43.597656 C 21.652344 44.144531 21.871094 44.699219 22.117188 45.308594 C 22.859375 45.046875 23.535156 44.796875 24.335938 44.496094 Z M 24.335938 44.496094 "/>
</g>
</svg>
