<?xml version="1.0" encoding="UTF-8"?>
<svg xmlns="http://www.w3.org/2000/svg" xmlns:xlink="http://www.w3.org/1999/xlink" width="75pt" height="75pt" viewBox="0 0 75 75" version="1.1">
<g id="surface2">
<path style=" stroke:none;fill-rule:nonzero;fill:rgb(4.313725%,25.098039%,66.666667%);fill-opacity:1;" d="M 75 37.5 C 75 16.792969 58.207031 0 37.5 0 C 16.792969 0 0 16.792969 0 37.5 C 0 58.207031 16.792969 75 37.5 75 C 58.207031 75 75 58.207031 75 37.5 Z M 75 37.5 "/>
<path style=" stroke:none;fill-rule:nonzero;fill:rgb(100%,100%,100%);fill-opacity:1;" d="M 9.148438 39.15625 C 9.148438 37.980469 9.148438 36.796875 9.148438 35.617188 C 9.238281 34.925781 9.316406 34.230469 9.414062 33.546875 C 10.3125 27.496094 12.816406 22.207031 17.113281 17.835938 C 23.796875 11.039062 31.957031 8.203125 41.363281 9.457031 C 50.175781 10.628906 56.960938 15.195312 61.679688 22.734375 C 65.039062 28.101562 66.308594 34.019531 65.714844 40.304688 C 65.136719 46.335938 62.828125 51.667969 58.800781 56.203125 C 54.414062 61.148438 48.960938 64.238281 42.449219 65.40625 C 41.398438 65.59375 40.34375 65.707031 39.285156 65.859375 C 38.101562 65.859375 36.921875 65.859375 35.738281 65.859375 C 35.011719 65.765625 34.273438 65.691406 33.554688 65.578125 C 27.988281 64.761719 23.0625 62.542969 18.847656 58.824219 C 13.875 54.433594 10.761719 48.984375 9.609375 42.441406 C 9.398438 41.347656 9.292969 40.246094 9.148438 39.15625 Z M 33.074219 31.261719 C 33.074219 28.800781 35.136719 26.796875 37.597656 26.863281 C 39.988281 26.933594 41.773438 28.726562 41.933594 31.238281 C 42.007812 32.363281 42.757812 33.097656 43.808594 33.058594 C 44.78125 33.023438 45.511719 32.175781 45.464844 31.085938 C 45.449219 30.644531 45.414062 30.203125 45.316406 29.765625 C 44.648438 26.753906 42.839844 24.726562 39.921875 23.707031 C 39.441406 23.542969 39.234375 23.289062 39.261719 22.777344 C 39.292969 22.359375 39.285156 21.929688 39.261719 21.503906 C 39.210938 20.527344 38.453125 19.777344 37.523438 19.769531 C 36.554688 19.761719 35.773438 20.511719 35.730469 21.511719 C 35.714844 21.898438 35.691406 22.289062 35.730469 22.671875 C 35.789062 23.28125 35.519531 23.566406 34.957031 23.746094 C 31.117188 24.984375 28.808594 29.078125 29.714844 33.007812 C 30.570312 36.683594 33.636719 39.179688 37.433594 39.253906 C 38.671875 39.285156 39.734375 39.699219 40.621094 40.566406 C 42.292969 42.203125 42.351562 44.851562 40.738281 46.671875 C 39.238281 48.375 36.496094 48.59375 34.734375 47.152344 C 33.636719 46.253906 33.105469 45.097656 33.050781 43.6875 C 33.015625 42.667969 32.226562 41.910156 31.289062 41.925781 C 30.277344 41.941406 29.503906 42.742188 29.527344 43.808594 C 29.535156 44.300781 29.578125 44.804688 29.683594 45.285156 C 30.367188 48.277344 32.167969 50.289062 35.070312 51.277344 C 35.558594 51.441406 35.761719 51.703125 35.722656 52.207031 C 35.691406 52.613281 35.707031 53.015625 35.722656 53.421875 C 35.753906 54.425781 36.515625 55.207031 37.460938 55.207031 C 38.414062 55.207031 39.195312 54.449219 39.253906 53.460938 C 39.277344 53.09375 39.261719 52.726562 39.261719 52.351562 C 39.261719 51.511719 39.269531 51.503906 40.085938 51.226562 C 44.210938 49.851562 46.492188 45.136719 45 41.054688 C 43.824219 37.828125 40.980469 35.804688 37.523438 35.722656 C 34.980469 35.65625 33.066406 33.742188 33.074219 31.261719 Z M 33.074219 31.261719 "/>
</g>
</svg>
