<?xml version="1.0" encoding="UTF-8"?>
<svg xmlns="http://www.w3.org/2000/svg" xmlns:xlink="http://www.w3.org/1999/xlink" width="75pt" height="75pt" viewBox="0 0 75 75" version="1.1">
<defs>
<filter id="alpha" filterUnits="objectBoundingBox" x="0%" y="0%" width="100%" height="100%">
  <feColorMatrix type="matrix" in="SourceGraphic" values="0 0 0 0 1 0 0 0 0 1 0 0 0 0 1 0 0 0 1 0"/>
</filter>
<mask id="mask0">
  <g filter="url(#alpha)">
<rect x="0" y="0" width="75" height="75" style="fill:rgb(0%,0%,0%);fill-opacity:0.301961;stroke:none;"/>
  </g>
</mask>
<clipPath id="clip1">
  <rect x="0" y="0" width="75" height="75"/>
</clipPath>
<g id="surface15" clip-path="url(#clip1)">
<path style=" stroke:none;fill-rule:nonzero;fill:rgb(11.764706%,11.764706%,10.980392%);fill-opacity:1;" d="M 48.433594 19.949219 L 47.378906 21.765625 C 47.585938 21.9375 47.789062 22.125 47.96875 22.34375 C 49.132812 22.808594 50.152344 23.746094 50.722656 25.222656 C 51.5625 27.425781 52.394531 28.980469 52.476562 31.003906 C 55.589844 31.925781 57.757812 35.917969 54.683594 38.714844 C 54.382812 38.992188 54.136719 39.335938 53.910156 39.710938 C 53.8125 39.886719 53.730469 40.058594 53.625 40.230469 C 52.949219 41.578125 52.484375 43.246094 51.433594 44.332031 C 49.710938 46.132812 47.476562 47.378906 45.398438 48.703125 C 43.441406 49.949219 41.527344 50.953125 39.164062 51.058594 C 38.535156 51.089844 37.914062 51.039062 37.296875 50.976562 C 37.402344 51.628906 37.394531 52.296875 37.253906 52.933594 C 36.890625 54.515625 35.675781 55.597656 34.238281 56.070312 L 47.910156 56.070312 L 47.910156 57.953125 L 27.703125 57.953125 L 27.703125 56.070312 L 30.667969 56.070312 C 30.285156 56.003906 29.902344 55.933594 29.550781 55.824219 C 29.535156 55.824219 29.519531 55.824219 29.496094 55.824219 C 29.023438 55.800781 27.9375 56.054688 29.421875 55.746094 C 28.777344 55.882812 28.140625 55.898438 27.539062 55.816406 L 25.792969 58.816406 L 38.363281 71.386719 C 54.984375 70.964844 68.632812 58.597656 71.03125 42.546875 Z M 48.433594 19.949219 "/>
</g>
</defs>
<g id="surface1">
<path style=" stroke:none;fill-rule:nonzero;fill:rgb(92.156863%,40.784314%,3.137255%);fill-opacity:1;" d="M 71.40625 37.5 C 71.40625 56.226562 56.226562 71.40625 37.5 71.40625 C 18.773438 71.40625 3.59375 56.226562 3.59375 37.5 C 3.59375 18.773438 18.773438 3.59375 37.5 3.59375 C 56.226562 3.59375 71.40625 18.773438 71.40625 37.5 Z M 71.40625 37.5 "/>
<path style=" stroke:none;fill-rule:nonzero;fill:rgb(100%,100%,100%);fill-opacity:1;" d="M 37.5 3.59375 C 56.226562 3.59375 71.40625 18.773438 71.40625 37.5 C 71.40625 56.226562 56.226562 71.40625 37.5 71.40625 C 18.773438 71.40625 3.59375 56.226562 3.59375 37.5 C 3.59375 18.773438 18.773438 3.59375 37.5 3.59375 M 37.5 0 C 27.480469 0 18.066406 3.898438 10.980469 10.980469 C 3.898438 18.066406 0 27.480469 0 37.5 C 0 47.519531 3.898438 56.933594 10.980469 64.019531 C 18.058594 71.109375 27.480469 75 37.5 75 C 47.519531 75 56.933594 71.101562 64.019531 64.019531 C 71.109375 56.941406 75 47.519531 75 37.5 C 75 27.480469 71.101562 18.066406 64.019531 10.980469 C 56.933594 3.898438 47.519531 0 37.5 0 Z M 37.5 0 "/>
<use xlink:href="#surface15" mask="url(#mask0)"/>
<path style=" stroke:none;fill-rule:nonzero;fill:rgb(100%,100%,100%);fill-opacity:1;" d="M 37.53125 59.324219 C 34.214844 59.324219 30.898438 59.332031 27.585938 59.316406 C 25.835938 59.308594 25.648438 59.109375 25.621094 57.382812 C 25.613281 57.046875 25.640625 56.699219 25.628906 56.363281 C 25.558594 55.132812 26.09375 54.59375 27.359375 54.613281 C 29.941406 54.660156 32.527344 54.609375 35.109375 54.636719 C 35.953125 54.644531 36.503906 54.496094 36.496094 53.453125 C 36.488281 52.539062 36.292969 52.109375 35.242188 51.953125 C 25.164062 50.4375 18.433594 43.320312 17.511719 33.316406 C 17.339844 31.46875 17.609375 31.058594 19.453125 31.191406 C 20.925781 31.296875 21.179688 30.578125 21.398438 29.378906 C 22.589844 22.980469 26.289062 18.59375 32.445312 16.566406 C 38.25 14.65625 43.636719 15.824219 48.292969 19.808594 C 51.367188 22.441406 53.191406 25.851562 53.671875 29.886719 C 53.789062 30.921875 54.1875 31.171875 55.132812 31.171875 C 57.503906 31.183594 57.683594 31.425781 57.441406 33.800781 C 56.488281 43.359375 49.710938 50.40625 39.855469 51.9375 C 38.675781 52.117188 38.4375 52.546875 38.453125 53.59375 C 38.476562 54.886719 39.359375 54.621094 40.09375 54.628906 C 42.578125 54.652344 45.066406 54.675781 47.550781 54.621094 C 48.78125 54.59375 49.289062 55.011719 49.304688 56.300781 C 49.34375 59.371094 49.394531 59.339844 46.289062 59.300781 C 43.363281 59.265625 40.441406 59.296875 37.515625 59.296875 C 37.53125 59.300781 37.53125 59.316406 37.53125 59.324219 Z M 37.425781 46.46875 C 45.34375 46.523438 51.847656 40.171875 51.921875 32.308594 C 51.996094 24.234375 45.675781 17.789062 37.582031 17.683594 C 29.730469 17.585938 23.109375 24.105469 23.03125 32.003906 C 22.949219 39.863281 29.476562 46.410156 37.425781 46.46875 Z M 19.515625 33.316406 C 19.550781 33.726562 19.558594 34.15625 19.628906 34.574219 C 20.871094 42.390625 26.316406 48.136719 34.050781 49.808594 C 41.078125 51.328125 48.546875 48.121094 52.738281 41.730469 C 54.234375 39.457031 55.148438 36.945312 55.394531 34.222656 C 55.425781 33.863281 55.222656 33.398438 54.96875 33.140625 C 54.824219 33 54.195312 33.082031 54.050781 33.269531 C 53.820312 33.59375 53.761719 34.066406 53.691406 34.484375 C 52.171875 44.242188 42.585938 50.59375 33.253906 47.886719 C 26.46875 45.921875 22.523438 41.28125 21.308594 34.34375 C 21.105469 33.21875 20.761719 32.730469 19.515625 33.316406 Z M 47.265625 57.210938 C 47.265625 57.089844 47.265625 56.976562 47.265625 56.859375 C 40.808594 56.859375 34.359375 56.859375 27.898438 56.859375 C 27.898438 56.976562 27.898438 57.089844 27.898438 57.210938 C 34.359375 57.210938 40.808594 57.210938 47.265625 57.210938 Z M 47.265625 57.210938 "/>
<path style=" stroke:none;fill-rule:nonzero;fill:rgb(100%,100%,100%);fill-opacity:1;" d="M 28.386719 39.015625 C 28.164062 39.015625 27.9375 38.933594 27.765625 38.761719 C 27.421875 38.414062 27.421875 37.859375 27.765625 37.515625 L 30.164062 35.113281 C 30.511719 34.769531 31.066406 34.769531 31.410156 35.113281 C 31.753906 35.460938 31.753906 36.015625 31.410156 36.359375 L 29.011719 38.761719 C 28.835938 38.933594 28.613281 39.015625 28.386719 39.015625 Z M 28.386719 39.015625 "/>
<path style=" stroke:none;fill-rule:nonzero;fill:rgb(100%,100%,100%);fill-opacity:1;" d="M 44.542969 28.664062 C 44.316406 28.664062 44.09375 28.582031 43.921875 28.410156 C 43.574219 28.066406 43.574219 27.511719 43.921875 27.164062 L 46.320312 24.765625 C 46.664062 24.421875 47.21875 24.421875 47.566406 24.765625 C 47.910156 25.109375 47.910156 25.664062 47.566406 26.011719 L 45.164062 28.410156 C 44.992188 28.582031 44.765625 28.664062 44.542969 28.664062 Z M 44.542969 28.664062 "/>
<path style=" stroke:none;fill-rule:nonzero;fill:rgb(100%,100%,100%);fill-opacity:1;" d="M 34.363281 33.039062 C 34.140625 33.039062 33.914062 32.953125 33.742188 32.78125 C 33.398438 32.4375 33.398438 31.882812 33.742188 31.539062 L 40.640625 24.636719 C 40.988281 24.292969 41.542969 24.292969 41.886719 24.636719 C 42.234375 24.984375 42.234375 25.539062 41.886719 25.882812 L 34.988281 32.78125 C 34.816406 32.953125 34.589844 33.039062 34.363281 33.039062 Z M 34.363281 33.039062 "/>
<path style=" stroke:none;fill-rule:nonzero;fill:rgb(100%,100%,100%);fill-opacity:1;" d="M 31.078125 42.128906 C 30.855469 42.128906 30.628906 42.046875 30.457031 41.871094 C 30.113281 41.527344 30.113281 40.972656 30.457031 40.628906 L 37.359375 33.726562 C 37.703125 33.382812 38.257812 33.382812 38.601562 33.726562 C 38.949219 34.074219 38.949219 34.628906 38.601562 34.972656 L 31.703125 41.871094 C 31.53125 42.046875 31.304688 42.128906 31.078125 42.128906 Z M 31.078125 42.128906 "/>
<path style=" stroke:none;fill-rule:nonzero;fill:rgb(100%,100%,100%);fill-opacity:1;" d="M 40.085938 33.128906 C 39.863281 33.128906 39.636719 33.046875 39.464844 32.871094 C 39.121094 32.527344 39.121094 31.972656 39.464844 31.628906 L 41.316406 29.773438 C 41.664062 29.429688 42.21875 29.429688 42.5625 29.773438 C 42.90625 30.121094 42.90625 30.675781 42.5625 31.019531 L 40.710938 32.871094 C 40.539062 33.039062 40.3125 33.128906 40.085938 33.128906 Z M 40.085938 33.128906 "/>
<path style=" stroke:none;fill-rule:nonzero;fill:rgb(100%,100%,100%);fill-opacity:1;" d="M 43.199219 24.960938 C 42.976562 24.960938 42.75 24.878906 42.578125 24.703125 C 42.234375 24.359375 42.234375 23.804688 42.578125 23.460938 L 44.429688 21.609375 C 44.773438 21.261719 45.328125 21.261719 45.675781 21.609375 C 46.019531 21.953125 46.019531 22.507812 45.675781 22.851562 L 43.824219 24.703125 C 43.648438 24.878906 43.425781 24.960938 43.199219 24.960938 Z M 43.199219 24.960938 "/>
<path style=" stroke:none;fill-rule:nonzero;fill:rgb(100%,100%,100%);fill-opacity:1;" d="M 52.816406 53.925781 L 50.398438 53.917969 C 48.75 53.683594 47.300781 53.003906 46.09375 51.890625 C 44.363281 50.296875 43.46875 48 43.640625 45.59375 C 43.816406 43.183594 45.03125 41.03125 46.980469 39.691406 C 50.46875 37.289062 55.453125 38.191406 57.863281 41.664062 C 59.308594 43.746094 59.65625 46.425781 58.785156 48.824219 C 57.898438 51.253906 55.90625 53.0625 53.308594 53.78125 C 53.21875 53.804688 53.136719 53.835938 53.046875 53.863281 Z M 50.519531 52.710938 L 52.65625 52.703125 C 52.761719 52.671875 52.867188 52.636719 52.972656 52.605469 C 55.183594 51.996094 56.886719 50.46875 57.628906 48.40625 C 58.363281 46.371094 58.074219 44.109375 56.851562 42.34375 C 54.816406 39.414062 50.601562 38.648438 47.648438 40.679688 C 46.003906 41.8125 44.976562 43.628906 44.835938 45.667969 C 44.691406 47.707031 45.441406 49.640625 46.90625 50.992188 C 47.917969 51.9375 49.132812 52.515625 50.519531 52.710938 Z M 50.519531 52.710938 "/>
<path style=" stroke:none;fill-rule:nonzero;fill:rgb(92.156863%,40.784314%,3.137255%);fill-opacity:1;" d="M 50.265625 54.488281 C 48.515625 54.234375 46.980469 53.503906 45.691406 52.320312 C 43.828125 50.601562 42.863281 48.136719 43.050781 45.546875 C 43.238281 42.960938 44.542969 40.648438 46.636719 39.210938 C 48.023438 38.257812 49.65625 37.753906 51.367188 37.753906 C 54.171875 37.753906 56.765625 39.089844 58.320312 41.332031 C 59.871094 43.574219 60.246094 46.449219 59.308594 49.019531 C 58.363281 51.628906 56.21875 53.574219 53.4375 54.335938 C 53.355469 54.359375 53.28125 54.382812 53.203125 54.414062 L 52.941406 54.503906 L 50.390625 54.515625 Z M 50.265625 54.488281 "/>
<path style=" stroke:none;fill-rule:nonzero;fill:rgb(100%,100%,100%);fill-opacity:1;" d="M 51.367188 39.546875 C 53.484375 39.546875 55.582031 40.53125 56.851562 42.351562 C 58.074219 44.113281 58.363281 46.378906 57.628906 48.414062 C 56.878906 50.476562 55.183594 52.003906 52.972656 52.613281 C 52.867188 52.640625 52.761719 52.671875 52.65625 52.710938 L 50.519531 52.71875 C 49.132812 52.515625 47.917969 51.9375 46.90625 51.007812 C 45.441406 49.65625 44.691406 47.722656 44.835938 45.683594 C 44.976562 43.640625 46.003906 41.820312 47.648438 40.695312 C 48.773438 39.914062 50.078125 39.546875 51.367188 39.546875 M 51.367188 35.953125 C 49.289062 35.953125 47.300781 36.570312 45.613281 37.726562 C 43.074219 39.472656 41.484375 42.277344 41.257812 45.414062 C 41.03125 48.546875 42.203125 51.539062 44.476562 53.632812 C 46.027344 55.066406 47.886719 55.949219 50.003906 56.257812 L 50.265625 56.296875 L 50.535156 56.296875 L 52.671875 56.289062 L 53.234375 56.289062 L 53.765625 56.113281 C 53.820312 56.101562 53.871094 56.078125 53.925781 56.0625 C 57.277344 55.140625 59.859375 52.792969 61.003906 49.628906 C 62.136719 46.507812 61.6875 43.019531 59.796875 40.296875 C 57.90625 37.582031 54.757812 35.953125 51.367188 35.953125 Z M 51.367188 35.953125 "/>
<path style=" stroke:none;fill-rule:nonzero;fill:rgb(100%,100%,100%);fill-opacity:1;" d="M 50.761719 47.488281 C 50.078125 46.949219 49.484375 46.46875 48.878906 46.003906 C 48.277344 45.546875 47.714844 45.5625 47.332031 46.027344 C 46.941406 46.5 47.039062 47.113281 47.617188 47.601562 C 48.425781 48.285156 49.246094 48.953125 50.070312 49.605469 C 50.738281 50.136719 51.203125 50.078125 51.789062 49.425781 C 53.167969 47.878906 54.539062 46.328125 55.921875 44.78125 C 56.421875 44.210938 56.46875 43.636719 56.015625 43.199219 C 55.558594 42.75 54.96875 42.800781 54.433594 43.363281 C 54.023438 43.800781 53.632812 44.265625 53.234375 44.707031 C 52.425781 45.621094 51.613281 46.53125 50.761719 47.488281 Z M 50.761719 47.488281 "/>
</g>
</svg>
