<?xml version="1.0" encoding="UTF-8"?>
<svg xmlns="http://www.w3.org/2000/svg" xmlns:xlink="http://www.w3.org/1999/xlink" width="75pt" height="75pt" viewBox="0 0 75 75" version="1.1">
<defs>
<filter id="alpha" filterUnits="objectBoundingBox" x="0%" y="0%" width="100%" height="100%">
  <feColorMatrix type="matrix" in="SourceGraphic" values="0 0 0 0 1 0 0 0 0 1 0 0 0 0 1 0 0 0 1 0"/>
</filter>
<mask id="mask0">
  <g filter="url(#alpha)">
<rect x="0" y="0" width="75" height="75" style="fill:rgb(0%,0%,0%);fill-opacity:0.301961;stroke:none;"/>
  </g>
</mask>
<clipPath id="clip1">
  <rect x="0" y="0" width="75" height="75"/>
</clipPath>
<g id="surface5" clip-path="url(#clip1)">
<path style=" stroke:none;fill-rule:nonzero;fill:rgb(11.764706%,11.764706%,10.980392%);fill-opacity:1;" d="M 39.375 15.164062 L 38.003906 16.613281 L 38.003906 20.453125 L 34.359375 20.453125 L 33.421875 21.441406 L 33.421875 26.210938 C 34.792969 27.007812 35.519531 28.5 35.59375 30.03125 L 38.65625 33.089844 L 38.578125 33.140625 L 38.761719 33.140625 L 38.761719 31.851562 L 39.34375 31.851562 L 39.34375 30.210938 L 41.753906 30.210938 L 41.753906 31.851562 L 42.578125 31.851562 L 42.578125 33.140625 L 43.101562 33.140625 L 43.101562 34.417969 C 43.53125 34.328125 43.964844 34.296875 44.390625 34.335938 L 44.390625 32.496094 L 45.328125 32.496094 L 45.328125 31.726562 L 45.800781 31.726562 L 45.800781 29.671875 L 46.386719 29.671875 L 46.386719 28.140625 L 47.09375 28.140625 L 47.09375 26.671875 L 49.5 26.671875 L 49.5 28.140625 L 50.496094 28.140625 L 50.496094 29.671875 L 50.789062 29.671875 L 50.789062 30.726562 L 51.96875 30.726562 L 51.96875 32.488281 L 52.492188 32.488281 L 52.492188 34.738281 C 52.640625 34.851562 52.792969 34.972656 52.933594 35.101562 C 55.613281 37.539062 56.984375 40.648438 58.835938 43.679688 C 59.398438 44.601562 59.578125 45.53125 59.496094 46.402344 L 60.179688 46.402344 L 60.179688 48.515625 L 61.003906 48.515625 L 61.003906 50.863281 L 52.816406 50.863281 C 52.253906 50.878906 51.675781 50.878906 51.089844 50.863281 L 29.96875 50.863281 C 25.394531 51.449219 21.15625 51.496094 18.90625 51.164062 C 18.546875 51.113281 18.226562 51 17.925781 50.863281 L 12.757812 50.863281 L 12.757812 50.40625 L 11.566406 51.203125 L 31.378906 71.015625 C 33.367188 71.378906 35.40625 71.578125 37.5 71.578125 C 53.300781 71.578125 66.585938 60.765625 70.34375 46.132812 Z M 39.375 15.164062 "/>
</g>
</defs>
<g id="surface1">
<path style=" stroke:none;fill-rule:nonzero;fill:rgb(92.156863%,40.784314%,3.137255%);fill-opacity:1;" d="M 71.398438 37.5 C 71.398438 56.222656 56.222656 71.398438 37.5 71.398438 C 18.777344 71.398438 3.601562 56.222656 3.601562 37.5 C 3.601562 18.777344 18.777344 3.601562 37.5 3.601562 C 56.222656 3.601562 71.398438 18.777344 71.398438 37.5 Z M 71.398438 37.5 "/>
<path style=" stroke:none;fill-rule:nonzero;fill:rgb(100%,100%,100%);fill-opacity:1;" d="M 37.5 3.601562 C 56.226562 3.601562 71.398438 18.78125 71.398438 37.5 C 71.398438 56.226562 56.21875 71.398438 37.5 71.398438 C 18.78125 71.398438 3.601562 56.226562 3.601562 37.5 C 3.601562 18.773438 18.773438 3.601562 37.5 3.601562 M 37.5 0 C 27.480469 0 18.066406 3.898438 10.980469 10.980469 C 3.898438 18.066406 0 27.480469 0 37.5 C 0 47.519531 3.898438 56.933594 10.980469 64.019531 C 18.066406 71.101562 27.480469 75 37.5 75 C 47.519531 75 56.933594 71.101562 64.019531 64.019531 C 71.101562 56.933594 75 47.519531 75 37.5 C 75 27.480469 71.101562 18.066406 64.019531 10.980469 C 56.933594 3.898438 47.519531 0 37.5 0 Z M 37.5 0 "/>
<use xlink:href="#surface5" mask="url(#mask0)"/>
<path style=" stroke:none;fill-rule:nonzero;fill:rgb(100%,100%,100%);fill-opacity:1;" d="M 62.746094 50.796875 L 49.816406 26.390625 C 49.582031 25.949219 49.125 25.671875 48.621094 25.671875 C 48.121094 25.671875 47.664062 25.949219 47.421875 26.390625 L 43.734375 33.351562 L 41.925781 29.894531 C 41.691406 29.445312 41.226562 29.167969 40.726562 29.167969 C 40.222656 29.167969 39.757812 29.445312 39.523438 29.894531 L 38.128906 32.558594 L 34.777344 26.121094 C 34.65625 25.898438 34.476562 25.710938 34.265625 25.582031 L 34.265625 21.039062 L 39 21.039062 C 39.203125 21.039062 39.398438 20.925781 39.496094 20.746094 C 39.59375 20.566406 39.585938 20.347656 39.472656 20.175781 L 38.121094 18.082031 L 39.480469 15.855469 C 39.585938 15.683594 39.59375 15.464844 39.488281 15.285156 C 39.390625 15.113281 39.203125 15 39 15 L 34.265625 15 L 34.265625 14.398438 C 34.265625 14.09375 34.011719 13.835938 33.703125 13.835938 C 33.398438 13.835938 33.140625 14.09375 33.140625 14.398438 L 33.140625 25.476562 C 32.820312 25.589844 32.542969 25.816406 32.378906 26.121094 L 27.773438 34.949219 L 25.132812 29.894531 C 24.898438 29.445312 24.433594 29.167969 23.933594 29.167969 C 23.429688 29.167969 22.964844 29.445312 22.734375 29.894531 L 11.804688 50.796875 C 11.714844 50.96875 11.722656 51.179688 11.820312 51.351562 C 11.925781 51.515625 12.105469 51.621094 12.300781 51.621094 L 62.25 51.621094 C 62.445312 51.621094 62.632812 51.515625 62.730469 51.351562 C 62.828125 51.179688 62.835938 50.96875 62.746094 50.796875 Z M 34.441406 16.125 L 38.003906 16.125 L 36.984375 17.796875 C 36.871094 17.984375 36.871094 18.210938 36.988281 18.398438 L 37.972656 19.921875 L 34.441406 19.921875 Z M 48.421875 26.917969 C 48.472656 26.8125 48.570312 26.796875 48.621094 26.796875 C 48.675781 26.796875 48.773438 26.8125 48.824219 26.917969 L 51.839844 32.601562 C 51.839844 32.609375 51.832031 32.617188 51.824219 32.617188 L 51.367188 33.585938 L 50.332031 30.710938 C 50.257812 30.515625 50.085938 30.375 49.875 30.34375 C 49.664062 30.316406 49.460938 30.414062 49.34375 30.585938 L 45.878906 35.59375 L 45.171875 33.164062 C 45.164062 33.140625 45.148438 33.128906 45.140625 33.113281 Z M 40.523438 30.421875 C 40.574219 30.316406 40.671875 30.300781 40.726562 30.300781 C 40.777344 30.300781 40.875 30.316406 40.925781 30.421875 L 43.09375 34.566406 L 41.121094 38.296875 L 38.765625 33.78125 Z M 33.375 26.648438 C 33.414062 26.574219 33.472656 26.550781 33.523438 26.535156 C 33.585938 26.558594 33.644531 26.574219 33.703125 26.574219 C 33.734375 26.585938 33.757812 26.609375 33.78125 26.648438 L 38.378906 35.453125 L 34.792969 33.300781 C 34.53125 33.140625 34.191406 33.226562 34.027344 33.480469 L 31.371094 37.710938 L 29.203125 34.640625 Z M 23.730469 30.421875 C 23.78125 30.316406 23.878906 30.300781 23.933594 30.300781 C 23.984375 30.300781 24.082031 30.316406 24.136719 30.421875 L 26.210938 34.386719 C 26.152344 34.441406 26.101562 34.5 26.0625 34.566406 L 25.550781 35.59375 L 24.375 34.019531 C 24.203125 33.789062 23.871094 33.726562 23.625 33.886719 L 21.089844 35.484375 Z M 20.0625 37.425781 C 20.109375 37.410156 20.144531 37.394531 20.191406 37.371094 L 23.773438 35.113281 L 25.191406 36.996094 C 25.3125 37.15625 25.5 37.246094 25.695312 37.222656 C 25.890625 37.207031 26.0625 37.085938 26.144531 36.914062 L 26.820312 35.566406 L 27.136719 36.171875 L 19.65625 50.503906 L 13.222656 50.503906 Z M 37.410156 50.496094 L 20.933594 50.496094 L 28.613281 35.765625 L 30.929688 39.050781 C 31.035156 39.203125 31.207031 39.292969 31.386719 39.292969 C 31.394531 39.292969 31.394531 39.292969 31.402344 39.292969 C 31.589844 39.285156 31.761719 39.1875 31.867188 39.03125 L 34.679688 34.550781 L 39.367188 37.363281 L 46.214844 50.496094 Z M 49.351562 50.496094 L 47.488281 50.496094 L 41.753906 39.503906 L 44.386719 34.53125 L 45.121094 37.050781 C 45.179688 37.261719 45.351562 37.410156 45.570312 37.449219 C 45.601562 37.453125 45.628906 37.453125 45.660156 37.453125 C 45.839844 37.453125 46.019531 37.363281 46.125 37.214844 L 49.640625 32.128906 L 50.765625 35.242188 C 50.84375 35.460938 51.046875 35.601562 51.269531 35.609375 C 51.515625 35.625 51.703125 35.496094 51.800781 35.289062 L 52.492188 33.839844 L 61.3125 50.496094 Z M 49.351562 50.496094 "/>
</g>
</svg>
