<?xml version="1.0" encoding="UTF-8"?>
<svg xmlns="http://www.w3.org/2000/svg" xmlns:xlink="http://www.w3.org/1999/xlink" width="75pt" height="75pt" viewBox="0 0 75 75" version="1.1">
<defs>
<filter id="alpha" filterUnits="objectBoundingBox" x="0%" y="0%" width="100%" height="100%">
  <feColorMatrix type="matrix" in="SourceGraphic" values="0 0 0 0 1 0 0 0 0 1 0 0 0 0 1 0 0 0 1 0"/>
</filter>
<mask id="mask0">
  <g filter="url(#alpha)">
<rect x="0" y="0" width="75" height="75" style="fill:rgb(0%,0%,0%);fill-opacity:0.301961;stroke:none;"/>
  </g>
</mask>
<clipPath id="clip1">
  <rect width="75" height="75"/>
</clipPath>
<g id="surface6" clip-path="url(#clip1)">
<path style=" stroke:none;fill-rule:nonzero;fill:rgb(11.764706%,11.764706%,10.980392%);fill-opacity:1;" d="M 39.375 15.15625 L 38.003906 16.605469 L 38.003906 20.445312 L 34.359375 20.445312 L 33.421875 21.433594 L 33.421875 26.210938 C 34.792969 27.007812 35.519531 28.5 35.59375 30.03125 L 38.65625 33.089844 L 38.578125 33.140625 L 38.761719 33.140625 L 38.761719 31.851562 L 39.34375 31.851562 L 39.34375 30.210938 L 41.753906 30.210938 L 41.753906 31.851562 L 42.578125 31.851562 L 42.578125 33.140625 L 43.101562 33.140625 L 43.101562 34.417969 C 43.53125 34.328125 43.964844 34.296875 44.390625 34.328125 L 44.390625 32.488281 L 45.328125 32.488281 L 45.328125 31.726562 L 45.800781 31.726562 L 45.800781 29.671875 L 46.386719 29.671875 L 46.386719 28.140625 L 47.09375 28.140625 L 47.09375 26.671875 L 49.5 26.671875 L 49.5 28.140625 L 50.496094 28.140625 L 50.496094 29.671875 L 50.789062 29.671875 L 50.789062 30.726562 L 51.96875 30.726562 L 51.96875 32.488281 L 52.492188 32.488281 L 52.492188 34.738281 C 52.640625 34.851562 52.792969 34.972656 52.933594 35.101562 C 55.613281 37.539062 56.984375 40.648438 58.835938 43.6875 C 59.398438 44.609375 59.578125 45.539062 59.496094 46.410156 L 60.179688 46.410156 L 60.179688 48.523438 L 61.003906 48.523438 L 61.003906 50.871094 L 52.816406 50.871094 C 52.253906 50.886719 51.675781 50.886719 51.089844 50.871094 L 29.96875 50.871094 C 25.386719 51.457031 21.15625 51.503906 18.898438 51.171875 C 18.539062 51.121094 18.21875 51.007812 17.917969 50.871094 L 12.75 50.871094 L 12.75 50.414062 L 11.558594 51.210938 L 31.378906 71.023438 C 33.367188 71.386719 35.40625 71.585938 37.5 71.585938 C 53.308594 71.585938 66.59375 60.773438 70.351562 46.132812 Z M 39.375 15.15625 "/>
</g>
</defs>
<g id="surface1">
<path style=" stroke:none;fill-rule:nonzero;fill:rgb(55.294118%,70.196078%,14.509804%);fill-opacity:1;" d="M 71.40625 37.5 C 71.40625 56.226562 56.226562 71.40625 37.5 71.40625 C 18.773438 71.40625 3.59375 56.226562 3.59375 37.5 C 3.59375 18.773438 18.773438 3.59375 37.5 3.59375 C 56.226562 3.59375 71.40625 18.773438 71.40625 37.5 Z M 71.40625 37.5 "/>
<path style=" stroke:none;fill-rule:nonzero;fill:rgb(100%,100%,100%);fill-opacity:1;" d="M 37.5 3.59375 C 56.226562 3.59375 71.40625 18.773438 71.40625 37.5 C 71.40625 56.226562 56.226562 71.40625 37.5 71.40625 C 18.773438 71.40625 3.59375 56.226562 3.59375 37.5 C 3.59375 18.773438 18.773438 3.59375 37.5 3.59375 M 37.5 0 C 27.480469 0 18.066406 3.898438 10.980469 10.980469 C 3.898438 18.066406 0 27.480469 0 37.5 C 0 47.519531 3.898438 56.933594 10.980469 64.019531 C 18.066406 71.101562 27.480469 75 37.5 75 C 47.519531 75 56.933594 71.101562 64.019531 64.019531 C 71.101562 56.933594 75 47.519531 75 37.5 C 75 27.480469 71.101562 18.066406 64.019531 10.980469 C 56.933594 3.898438 47.519531 0 37.5 0 Z M 37.5 0 "/>
<use xlink:href="#surface6" mask="url(#mask0)"/>
<path style=" stroke:none;fill-rule:nonzero;fill:rgb(100%,100%,100%);fill-opacity:1;" d="M 62.753906 50.796875 L 49.824219 26.390625 C 49.589844 25.949219 49.132812 25.671875 48.628906 25.671875 C 48.128906 25.671875 47.671875 25.949219 47.429688 26.390625 L 43.738281 33.359375 L 41.933594 29.902344 C 41.699219 29.453125 41.234375 29.175781 40.734375 29.175781 C 40.230469 29.175781 39.765625 29.453125 39.53125 29.902344 L 38.136719 32.566406 L 34.785156 26.128906 C 34.664062 25.90625 34.484375 25.71875 34.273438 25.589844 L 34.273438 21.039062 L 39 21.039062 C 39.203125 21.039062 39.398438 20.925781 39.496094 20.746094 C 39.59375 20.566406 39.585938 20.347656 39.472656 20.167969 L 38.121094 18.074219 L 39.480469 15.847656 C 39.585938 15.675781 39.59375 15.457031 39.488281 15.277344 C 39.390625 15.097656 39.203125 14.992188 39 14.992188 L 34.265625 14.992188 L 34.265625 14.390625 C 34.265625 14.085938 34.011719 13.828125 33.703125 13.828125 C 33.398438 13.828125 33.140625 14.085938 33.140625 14.390625 L 33.140625 25.476562 C 32.820312 25.589844 32.542969 25.816406 32.378906 26.121094 L 27.773438 34.949219 L 25.132812 29.894531 C 24.898438 29.445312 24.433594 29.167969 23.933594 29.167969 C 23.429688 29.167969 22.964844 29.445312 22.734375 29.894531 L 11.796875 50.804688 C 11.707031 50.976562 11.714844 51.1875 11.8125 51.359375 C 11.917969 51.523438 12.097656 51.628906 12.292969 51.628906 L 62.25 51.628906 C 62.445312 51.628906 62.632812 51.523438 62.730469 51.359375 C 62.828125 51.195312 62.84375 50.96875 62.753906 50.796875 Z M 34.441406 16.117188 L 38.003906 16.117188 L 36.984375 17.789062 C 36.871094 17.976562 36.871094 18.203125 36.988281 18.390625 L 37.972656 19.914062 L 34.441406 19.914062 Z M 48.421875 26.917969 C 48.472656 26.8125 48.570312 26.796875 48.621094 26.796875 C 48.675781 26.796875 48.773438 26.8125 48.824219 26.917969 L 51.839844 32.601562 C 51.839844 32.609375 51.832031 32.617188 51.824219 32.617188 L 51.367188 33.585938 L 50.332031 30.710938 C 50.257812 30.515625 50.085938 30.375 49.875 30.34375 C 49.664062 30.316406 49.460938 30.414062 49.34375 30.585938 L 45.871094 35.59375 L 45.164062 33.164062 C 45.15625 33.140625 45.140625 33.128906 45.136719 33.113281 Z M 40.523438 30.414062 C 40.574219 30.308594 40.671875 30.292969 40.726562 30.292969 C 40.777344 30.292969 40.875 30.308594 40.925781 30.414062 L 43.09375 34.558594 L 41.121094 38.289062 L 38.765625 33.773438 Z M 33.375 26.640625 C 33.414062 26.566406 33.472656 26.542969 33.523438 26.527344 C 33.585938 26.550781 33.644531 26.566406 33.703125 26.566406 C 33.734375 26.578125 33.757812 26.601562 33.78125 26.640625 L 38.378906 35.453125 L 34.792969 33.300781 C 34.53125 33.140625 34.191406 33.226562 34.027344 33.480469 L 31.371094 37.710938 L 29.203125 34.636719 Z M 23.722656 30.414062 C 23.773438 30.308594 23.871094 30.292969 23.925781 30.292969 C 23.976562 30.292969 24.074219 30.308594 24.128906 30.414062 L 26.203125 34.378906 C 26.144531 34.433594 26.09375 34.492188 26.054688 34.558594 L 25.546875 35.585938 L 24.367188 34.011719 C 24.195312 33.78125 23.863281 33.71875 23.617188 33.871094 L 21.082031 35.46875 Z M 20.0625 37.425781 C 20.109375 37.410156 20.144531 37.394531 20.191406 37.371094 L 23.773438 35.113281 L 25.191406 36.996094 C 25.3125 37.15625 25.5 37.246094 25.695312 37.222656 C 25.890625 37.207031 26.0625 37.085938 26.144531 36.914062 L 26.820312 35.566406 L 27.136719 36.171875 L 19.65625 50.503906 L 13.222656 50.503906 Z M 37.410156 50.496094 L 20.925781 50.496094 L 28.613281 35.765625 L 30.9375 39.050781 C 31.042969 39.203125 31.214844 39.292969 31.394531 39.292969 C 31.402344 39.292969 31.402344 39.292969 31.410156 39.292969 C 31.597656 39.285156 31.769531 39.1875 31.875 39.03125 L 34.6875 34.550781 L 39.375 37.363281 L 46.230469 50.503906 L 37.410156 50.503906 Z M 49.359375 50.496094 L 47.496094 50.496094 L 41.761719 39.496094 L 44.390625 34.523438 L 45.128906 37.042969 C 45.1875 37.253906 45.359375 37.402344 45.578125 37.441406 C 45.609375 37.449219 45.636719 37.449219 45.667969 37.449219 C 45.847656 37.449219 46.027344 37.359375 46.132812 37.207031 L 49.648438 32.121094 L 50.773438 35.234375 C 50.851562 35.453125 51.050781 35.59375 51.277344 35.601562 C 51.523438 35.617188 51.710938 35.488281 51.808594 35.28125 L 52.5 33.832031 L 61.328125 50.488281 L 49.359375 50.488281 Z M 49.359375 50.496094 "/>
</g>
</svg>
