<?xml version="1.0" encoding="UTF-8"?>
<svg xmlns="http://www.w3.org/2000/svg" xmlns:xlink="http://www.w3.org/1999/xlink" width="75pt" height="75pt" viewBox="0 0 75 75" version="1.1">
<defs>
<filter id="alpha" filterUnits="objectBoundingBox" x="0%" y="0%" width="100%" height="100%">
  <feColorMatrix type="matrix" in="SourceGraphic" values="0 0 0 0 1 0 0 0 0 1 0 0 0 0 1 0 0 0 1 0"/>
</filter>
<mask id="mask0">
  <g filter="url(#alpha)">
<rect x="0" y="0" width="75" height="75" style="fill:rgb(0%,0%,0%);fill-opacity:0.301961;stroke:none;"/>
  </g>
</mask>
<clipPath id="clip1">
  <rect width="75" height="75"/>
</clipPath>
<g id="surface6" clip-path="url(#clip1)">
<path style=" stroke:none;fill-rule:nonzero;fill:rgb(11.764706%,11.764706%,10.980392%);fill-opacity:1;" d="M 51.71875 21.824219 L 50.175781 23.355469 C 51.050781 23.976562 51.691406 24.9375 51.871094 26.226562 C 53.453125 26.609375 54.929688 27.691406 55.640625 29.453125 C 56.289062 31.042969 56.863281 32.578125 57.226562 34.261719 C 57.675781 36.34375 56.878906 38.015625 55.589844 39.074219 C 56.714844 40.296875 57.21875 42.210938 56.746094 43.726562 C 56.226562 45.351562 55.574219 46.328125 54.652344 47.0625 C 54.734375 47.78125 54.90625 48.855469 54.914062 49.175781 C 54.96875 51.921875 52.425781 53.992188 49.90625 54.050781 C 49.363281 54.609375 48.601562 55.074219 47.894531 55.359375 C 46.109375 56.101562 43.988281 55.769531 42.382812 54.757812 C 38.40625 52.265625 39.660156 47.542969 40.066406 43.636719 C 40.074219 43.539062 40.101562 43.453125 40.117188 43.363281 C 39.855469 43.074219 39.644531 42.726562 39.464844 42.367188 L 40.710938 43.941406 C 40.328125 38.796875 40.808594 33.652344 39.691406 28.5 C 39.292969 26.671875 39.855469 25.164062 40.875 24.105469 L 35.199219 18.425781 L 34.050781 19.574219 C 34.914062 20.199219 35.59375 21.238281 35.863281 22.214844 C 36.074219 22.988281 36.082031 23.976562 35.851562 24.847656 C 35.84375 25.175781 35.804688 25.507812 35.738281 25.835938 C 35.210938 28.46875 35.144531 31.011719 35.917969 33.59375 C 36.367188 35.085938 36.121094 36.367188 35.484375 37.351562 L 35.753906 37.6875 C 35.820312 38.046875 35.863281 38.421875 35.859375 38.835938 C 35.804688 40.679688 35.46875 42.503906 35.378906 44.347656 C 35.308594 45.734375 35.347656 47.121094 35.296875 48.511719 C 36.765625 51.390625 35.390625 55.816406 31.171875 55.816406 C 29.40625 55.816406 28.148438 55.050781 27.375 53.949219 C 27.179688 53.8125 26.992188 53.664062 26.820312 53.496094 C 26.609375 53.527344 26.390625 53.566406 26.183594 53.566406 L 26.0625 53.566406 C 24.742188 53.566406 23.574219 53.011719 22.621094 52.140625 C 22.371094 51.90625 22.164062 51.652344 21.984375 51.367188 L 20.773438 52.566406 L 39.546875 71.339844 C 56.054688 70.359375 69.375 57.570312 71.199219 41.296875 Z M 51.71875 21.824219 "/>
</g>
</defs>
<g id="surface1">
<path style=" stroke:none;fill-rule:nonzero;fill:rgb(55.294118%,70.196078%,14.509804%);fill-opacity:1;" d="M 71.40625 37.5 C 71.40625 56.226562 56.226562 71.40625 37.5 71.40625 C 18.773438 71.40625 3.59375 56.226562 3.59375 37.5 C 3.59375 18.773438 18.773438 3.59375 37.5 3.59375 C 56.226562 3.59375 71.40625 18.773438 71.40625 37.5 Z M 71.40625 37.5 "/>
<path style=" stroke:none;fill-rule:nonzero;fill:rgb(100%,100%,100%);fill-opacity:1;" d="M 37.5 3.59375 C 56.226562 3.59375 71.40625 18.773438 71.40625 37.5 C 71.40625 56.226562 56.226562 71.40625 37.5 71.40625 C 18.773438 71.40625 3.59375 56.226562 3.59375 37.5 C 3.59375 18.773438 18.773438 3.59375 37.5 3.59375 M 37.5 0 C 27.480469 0 18.066406 3.898438 10.980469 10.980469 C 3.898438 18.066406 0 27.480469 0 37.5 C 0 47.519531 3.898438 56.933594 10.980469 64.019531 C 18.066406 71.101562 27.480469 75 37.5 75 C 47.519531 75 56.933594 71.101562 64.019531 64.019531 C 71.101562 56.933594 75 47.519531 75 37.5 C 75 27.480469 71.101562 18.066406 64.019531 10.980469 C 56.933594 3.898438 47.519531 0 37.5 0 Z M 37.5 0 "/>
<use xlink:href="#surface6" mask="url(#mask0)"/>
<path style="fill-rule:nonzero;fill:rgb(100%,100%,100%);fill-opacity:1;stroke-width:1.1963;stroke-linecap:round;stroke-linejoin:round;stroke:rgb(100%,100%,100%);stroke-opacity:1;stroke-miterlimit:10;" d="M 64.302083 28.239583 C 67.958333 28.0625 70.671875 30.380208 70.520833 34.619792 C 73.03125 35.28125 74.802083 36.791667 75.03125 39.510417 C 75.130208 40.682292 75.46875 41.520833 76.208333 42.432292 C 78.140625 44.802083 78.182292 48.229167 76.479167 50.78125 C 76.239583 51.151042 75.958333 51.489583 75.671875 51.901042 C 77.447917 54.229167 78.260417 56.859375 77.302083 59.651042 C 76.791667 61.151042 75.630208 62.411458 74.8125 63.8125 C 74.53125 64.291667 74.197917 64.869792 74.25 65.380208 C 74.661458 69.401042 71.682292 72.770833 67.630208 72.729167 C 66.890625 72.71875 66.359375 72.78125 65.838542 73.479167 C 63.9375 76.041667 60.71875 76.979167 57.739583 75.989583 C 54.802083 75.010417 52.78125 72.328125 52.739583 69.109375 C 52.6875 64.567708 52.71875 60.020833 52.71875 55.479167 C 52.71875 46.880208 52.697917 38.291667 52.729167 29.6875 C 52.75 25.541667 56.208333 22.802083 60.0625 23.8125 C 61.901042 24.302083 62.9375 25.380208 64.302083 28.239583 Z M 74.041667 52.96875 C 73.78125 53.067708 73.5 53.182292 73.208333 53.291667 C 70.432292 54.348958 67.859375 53.979167 65.598958 52.041667 C 64.03125 50.697917 63.197917 48.9375 63.182292 46.890625 C 63.182292 46.510417 63.697917 46.119792 63.979167 45.739583 C 64.291667 46.052083 64.630208 46.328125 64.890625 46.682292 C 65.010417 46.828125 64.958333 47.109375 64.989583 47.328125 C 65.328125 49.828125 67.182292 51.6875 69.71875 52.078125 C 71.947917 52.432292 74.401042 51.0625 75.401042 48.921875 C 76.421875 46.729167 75.921875 44.3125 73.989583 42.630208 C 73.359375 42.078125 73.088542 41.609375 73.25 40.697917 C 73.651042 38.421875 72.109375 36.53125 69.791667 36.421875 C 68.578125 36.359375 68.348958 35.828125 68.5625 34.791667 C 69.052083 32.380208 67.890625 30.5 65.671875 30.0625 C 63.729167 29.671875 61.989583 31.119792 61.46875 33.421875 C 61.369792 33.848958 60.817708 34.171875 60.479167 34.541667 C 60.229167 34.088542 59.739583 33.640625 59.760417 33.208333 C 59.838542 31.729167 60.479167 30.432292 61.697917 29.5625 C 62.520833 28.96875 62.53125 28.380208 62.078125 27.651042 C 61.828125 27.239583 61.5625 26.8125 61.208333 26.479167 C 59.979167 25.338542 58.53125 25.0625 57 25.708333 C 55.369792 26.401042 54.520833 27.6875 54.520833 29.479167 C 54.520833 34.921875 54.520833 40.348958 54.520833 45.791667 C 54.520833 53.541667 54.5 61.302083 54.53125 69.052083 C 54.541667 71.671875 56.130208 73.697917 58.5625 74.390625 C 60.859375 75.052083 63.401042 74.197917 64.609375 72.130208 C 65.270833 71 65.890625 70.651042 67.229167 70.859375 C 69.828125 71.270833 72.161458 69.369792 72.46875 66.869792 C 72.802083 64.270833 71.020833 61.921875 68.401042 61.479167 C 68.052083 61.421875 67.651042 61.4375 67.359375 61.270833 C 67.098958 61.119792 66.78125 60.71875 66.817708 60.5 C 66.880208 60.1875 67.208333 59.770833 67.489583 59.697917 C 67.9375 59.588542 68.458333 59.6875 68.9375 59.78125 C 70.78125 60.119792 72.151042 61.21875 73.25 62.651042 C 76.432292 60.338542 76.78125 55.828125 74.041667 52.96875 Z M 74.041667 52.96875 " transform="matrix(0.75,0,0,0.75,0,0)"/>
<path style="fill-rule:nonzero;fill:rgb(100%,100%,100%);fill-opacity:1;stroke-width:1.1963;stroke-linecap:round;stroke-linejoin:round;stroke:rgb(100%,100%,100%);stroke-opacity:1;stroke-miterlimit:10;" d="M 25.661458 51.848958 C 22.838542 48.239583 22.932292 44.958333 25.848958 41.541667 C 26.041667 41.317708 26.260417 41.010417 26.239583 40.760417 C 26.0625 37.447917 27.75 35.520833 30.760417 34.609375 C 30.651042 30.78125 32.9375 28.109375 37.088542 28.239583 C 37.848958 25.739583 39.411458 24.03125 42.151042 23.661458 C 45.171875 23.25 48.078125 25.447917 48.489583 28.458333 C 48.5625 28.9375 48.578125 29.4375 48.578125 29.932292 C 48.578125 42.848958 48.598958 55.770833 48.578125 68.6875 C 48.567708 74.098958 43.770833 77.729167 38.911458 75.921875 C 37.609375 75.432292 36.5625 74.25 35.380208 73.421875 C 34.989583 73.151042 34.541667 72.78125 34.119792 72.770833 C 29.46875 72.739583 26.729167 69.697917 27.140625 65.010417 C 27.171875 64.71875 27.041667 64.328125 26.848958 64.119792 C 22.989583 60.0625 22.640625 56.588542 25.661458 51.848958 Z M 27.979167 62.630208 C 29.979167 60.5 31.682292 59.53125 33.46875 59.661458 C 33.859375 59.6875 34.21875 60.171875 34.598958 60.4375 C 34.291667 60.739583 34.03125 61.151042 33.661458 61.3125 C 33.140625 61.541667 32.520833 61.510417 31.979167 61.708333 C 29.640625 62.567708 28.369792 65.010417 28.96875 67.432292 C 29.552083 69.78125 31.848958 71.302083 34.401042 70.848958 C 35.46875 70.661458 36 70.890625 36.520833 71.838542 C 36.932292 72.578125 37.619792 73.270833 38.338542 73.739583 C 40.119792 74.901042 42.041667 74.958333 43.911458 73.921875 C 45.869792 72.828125 46.828125 71.109375 46.828125 68.869792 C 46.828125 55.8125 46.828125 42.760417 46.828125 29.697917 C 46.828125 29.479167 46.838542 29.25 46.817708 29.03125 C 46.640625 27.260417 45.239583 25.729167 43.541667 25.4375 C 41.708333 25.130208 39.911458 26.098958 39.161458 27.78125 C 38.869792 28.432292 38.9375 28.848958 39.5 29.489583 C 40.369792 30.46875 40.958333 31.75 41.510417 32.96875 C 41.760417 33.53125 41.8125 34.411458 40.828125 34.53125 C 39.9375 34.651042 39.947917 33.932292 39.838542 33.291667 C 39.338542 30.5 36.552083 29.151042 34.3125 30.609375 C 32.770833 31.609375 32.369792 33.088542 32.760417 34.817708 C 32.979167 35.791667 32.8125 36.328125 31.661458 36.421875 C 29.119792 36.609375 27.817708 38.338542 28.067708 40.880208 C 28.119792 41.390625 27.859375 42.098958 27.489583 42.458333 C 25.447917 44.411458 24.880208 46.661458 25.958333 48.958333 C 26.96875 51.109375 29.421875 52.447917 31.661458 52.078125 C 34.270833 51.651042 36.0625 49.708333 36.447917 47.041667 C 36.520833 46.567708 37.067708 46.171875 37.401042 45.739583 C 37.651042 46.21875 38.151042 46.71875 38.119792 47.1875 C 37.869792 51.088542 34.567708 54.041667 30.682292 53.817708 C 29.510417 53.75 28.359375 53.348958 27.151042 53.088542 C 24.578125 55.890625 24.890625 60.078125 27.979167 62.630208 Z M 27.979167 62.630208 " transform="matrix(0.75,0,0,0.75,0,0)"/>
</g>
</svg>
