<?xml version="1.0" encoding="UTF-8"?>
<svg xmlns="http://www.w3.org/2000/svg" xmlns:xlink="http://www.w3.org/1999/xlink" width="75pt" height="75pt" viewBox="0 0 75 75" version="1.1">
<defs>
<filter id="alpha" filterUnits="objectBoundingBox" x="0%" y="0%" width="100%" height="100%">
  <feColorMatrix type="matrix" in="SourceGraphic" values="0 0 0 0 1 0 0 0 0 1 0 0 0 0 1 0 0 0 1 0"/>
</filter>
<mask id="mask0">
  <g filter="url(#alpha)">
<rect x="0" y="0" width="75" height="75" style="fill:rgb(0%,0%,0%);fill-opacity:0.301961;stroke:none;"/>
  </g>
</mask>
<clipPath id="clip1">
  <rect width="75" height="75"/>
</clipPath>
<g id="surface6" clip-path="url(#clip1)">
<path style=" stroke:none;fill-rule:nonzero;fill:rgb(11.764706%,11.764706%,10.980392%);fill-opacity:1;" d="M 50.011719 16.808594 L 49.84375 17.039062 C 51.03125 19.824219 49.648438 23.789062 45.71875 23.789062 C 44.761719 23.789062 43.957031 23.558594 43.304688 23.160156 L 23.738281 23.199219 L 28.5 27.960938 C 29.273438 27.710938 30.164062 27.675781 31.148438 27.953125 C 33.488281 28.613281 36.511719 28.101562 38.949219 28.183594 C 39.691406 28.207031 40.441406 28.265625 41.191406 28.320312 C 41.78125 28.027344 42.480469 27.855469 43.289062 27.855469 C 43.90625 27.855469 44.445312 27.953125 44.941406 28.125 C 45.546875 27.824219 46.273438 27.660156 47.128906 27.699219 C 49.5 27.796875 51.269531 28.5 52.621094 30.539062 C 53.550781 31.957031 53.421875 34.140625 52.449219 35.566406 C 52.769531 36.1875 52.933594 36.929688 52.84375 37.800781 C 52.3125 43.074219 53.210938 48.34375 52.6875 53.617188 C 52.433594 56.175781 50.714844 58.289062 47.992188 58.3125 C 44.773438 58.351562 41.527344 58.335938 38.300781 58.28125 C 35.09375 58.222656 31.664062 57.511719 28.484375 57.988281 C 26.078125 58.351562 24.234375 57.066406 23.289062 55.359375 L 21.976562 57.253906 L 36.082031 71.363281 C 36.554688 71.386719 37.019531 71.398438 37.492188 71.398438 C 55.988281 71.398438 71.015625 56.585938 71.386719 38.183594 Z M 50.011719 16.808594 "/>
</g>
</defs>
<g id="surface1">
<path style=" stroke:none;fill-rule:nonzero;fill:rgb(55.294118%,70.196078%,14.509804%);fill-opacity:1;" d="M 71.40625 37.5 C 71.40625 56.226562 56.226562 71.40625 37.5 71.40625 C 18.773438 71.40625 3.59375 56.226562 3.59375 37.5 C 3.59375 18.773438 18.773438 3.59375 37.5 3.59375 C 56.226562 3.59375 71.40625 18.773438 71.40625 37.5 Z M 71.40625 37.5 "/>
<path style=" stroke:none;fill-rule:nonzero;fill:rgb(100%,100%,100%);fill-opacity:1;" d="M 37.5 3.59375 C 56.226562 3.59375 71.40625 18.773438 71.40625 37.5 C 71.40625 56.226562 56.226562 71.40625 37.5 71.40625 C 18.773438 71.40625 3.59375 56.226562 3.59375 37.5 C 3.59375 18.773438 18.773438 3.59375 37.5 3.59375 M 37.5 0 C 27.480469 0 18.066406 3.898438 10.980469 10.980469 C 3.898438 18.066406 0 27.480469 0 37.5 C 0 47.519531 3.898438 56.933594 10.980469 64.019531 C 18.066406 71.101562 27.480469 75 37.5 75 C 47.519531 75 56.933594 71.101562 64.019531 64.019531 C 71.109375 56.941406 75 47.519531 75 37.5 C 75 27.480469 71.101562 18.066406 64.019531 10.980469 C 56.933594 3.898438 47.519531 0 37.5 0 Z M 37.5 0 "/>
<use xlink:href="#surface6" mask="url(#mask0)"/>
<path style=" stroke:none;fill-rule:nonzero;fill:rgb(100%,100%,100%);fill-opacity:1;" d="M 26.503906 59.503906 L 48.488281 59.503906 C 51.554688 59.503906 54.046875 57.015625 54.046875 53.941406 L 54.046875 31.964844 C 54.046875 28.898438 51.546875 26.40625 48.488281 26.40625 L 26.503906 26.40625 C 23.4375 26.40625 20.941406 28.90625 20.941406 31.964844 L 20.941406 53.949219 C 20.949219 57.015625 23.445312 59.503906 26.503906 59.503906 Z M 23.03125 31.964844 C 23.03125 30.050781 24.59375 28.492188 26.503906 28.492188 L 48.488281 28.492188 C 50.398438 28.492188 51.960938 30.050781 51.960938 31.964844 L 51.960938 53.949219 C 51.960938 55.867188 50.398438 57.421875 48.488281 57.421875 L 26.503906 57.421875 C 24.59375 57.421875 23.03125 55.859375 23.03125 53.949219 Z M 23.03125 31.964844 "/>
<path style=" stroke:none;fill-rule:nonzero;fill:rgb(100%,100%,100%);fill-opacity:1;" d="M 28.207031 24.628906 L 45.808594 24.628906 C 48.863281 24.628906 51.253906 22.949219 51.253906 20.804688 L 51.253906 19.320312 C 51.253906 17.175781 48.863281 15.496094 45.808594 15.496094 L 28.207031 15.496094 C 25.15625 15.496094 22.761719 17.175781 22.761719 19.320312 L 22.761719 20.804688 C 22.761719 22.949219 25.15625 24.628906 28.207031 24.628906 Z M 24.847656 19.320312 C 24.847656 18.503906 26.289062 17.578125 28.207031 17.578125 L 45.808594 17.578125 C 47.730469 17.578125 49.171875 18.503906 49.171875 19.320312 L 49.171875 20.804688 C 49.171875 21.628906 47.730469 22.546875 45.808594 22.546875 L 28.207031 22.546875 C 26.289062 22.546875 24.847656 21.628906 24.847656 20.804688 Z M 24.847656 19.320312 "/>
<path style=" stroke:none;fill-rule:nonzero;fill:rgb(100%,100%,100%);fill-opacity:1;" d="M 26.378906 33.097656 C 26.640625 33.21875 30.878906 35.03125 37.265625 35.03125 C 40.539062 35.03125 44.378906 34.550781 48.53125 33.128906 C 49.078125 32.941406 49.363281 32.347656 49.175781 31.800781 C 48.988281 31.253906 48.398438 30.96875 47.851562 31.15625 C 46.648438 31.558594 45.488281 31.890625 44.347656 32.136719 C 38.414062 33.464844 33.398438 32.84375 30.359375 32.136719 C 28.394531 31.6875 27.253906 31.199219 27.21875 31.183594 C 26.691406 30.953125 26.078125 31.191406 25.84375 31.71875 C 25.613281 32.25 25.851562 32.863281 26.378906 33.097656 Z M 26.378906 33.097656 "/>
<path style=" stroke:none;fill-rule:nonzero;fill:rgb(100%,100%,100%);fill-opacity:1;" d="M 38.753906 54.253906 L 36.195312 54.253906 L 36.195312 51.976562 C 34.84375 51.636719 33.808594 50.796875 33.1875 49.613281 L 35.210938 48.066406 C 35.835938 49.011719 36.636719 49.46875 37.613281 49.46875 C 38.273438 49.46875 38.714844 49.261719 38.714844 48.832031 C 38.714844 48.457031 38.414062 48.277344 37.648438 48.015625 L 36.457031 47.625 C 34.679688 47.003906 33.703125 45.863281 33.703125 44.386719 C 33.703125 42.90625 34.679688 41.789062 36.195312 41.363281 L 36.195312 39.195312 L 38.753906 39.195312 L 38.753906 41.324219 C 39.90625 41.609375 40.761719 42.300781 41.347656 43.425781 L 39.324219 44.96875 C 38.828125 44.242188 38.21875 43.867188 37.53125 43.867188 C 37.035156 43.867188 36.699219 44.046875 36.699219 44.398438 C 36.699219 44.699219 36.96875 44.917969 37.589844 45.128906 L 38.925781 45.539062 C 40.84375 46.199219 41.714844 47.265625 41.714844 48.773438 C 41.714844 50.484375 40.539062 51.652344 38.761719 52.027344 L 38.761719 54.253906 Z M 38.753906 54.253906 "/>
</g>
</svg>
