<?xml version="1.0" encoding="UTF-8"?>
<svg xmlns="http://www.w3.org/2000/svg" xmlns:xlink="http://www.w3.org/1999/xlink" width="75pt" height="75pt" viewBox="0 0 75 75" version="1.1">
<defs>
<filter id="alpha" filterUnits="objectBoundingBox" x="0%" y="0%" width="100%" height="100%">
  <feColorMatrix type="matrix" in="SourceGraphic" values="0 0 0 0 1 0 0 0 0 1 0 0 0 0 1 0 0 0 1 0"/>
</filter>
<mask id="mask0">
  <g filter="url(#alpha)">
<rect x="0" y="0" width="75" height="75" style="fill:rgb(0%,0%,0%);fill-opacity:0.301961;stroke:none;"/>
  </g>
</mask>
<clipPath id="clip1">
  <rect width="75" height="75"/>
</clipPath>
<g id="surface6" clip-path="url(#clip1)">
<path style=" stroke:none;fill-rule:nonzero;fill:rgb(11.764706%,11.764706%,10.980392%);fill-opacity:1;" d="M 48.128906 58.566406 C 47.429688 58.566406 46.816406 58.441406 46.273438 58.230469 C 45.382812 58.074219 44.640625 57.699219 44.070312 57.171875 C 43.3125 57.1875 42.5625 57.097656 41.828125 56.925781 C 41.175781 57.292969 40.378906 57.511719 39.449219 57.511719 C 39.066406 57.511719 38.714844 57.472656 38.378906 57.40625 C 37.621094 58.066406 36.601562 58.484375 35.308594 58.484375 C 33.253906 58.484375 31.875 57.433594 31.171875 56.03125 L 29.902344 58.335938 L 42.59375 71.023438 C 55.28125 69.113281 65.664062 60.164062 69.652344 48.285156 L 47.601562 26.234375 L 46.867188 27.5625 C 47.46875 27.960938 47.984375 28.476562 48.359375 29.09375 C 49.835938 31.5 50.386719 34.378906 49.265625 37.035156 C 48.121094 39.757812 45.824219 41.191406 43.183594 42.246094 C 41.753906 42.824219 40.261719 42.382812 39.105469 41.488281 C 37.664062 41.191406 36.644531 40.320312 36.066406 39.203125 C 34.914062 38.023438 34.183594 36.457031 34.246094 34.703125 C 34.246094 34.6875 34.246094 34.679688 34.253906 34.664062 C 33.496094 32.488281 34.164062 29.761719 36.253906 28.574219 C 36.78125 27.636719 37.589844 26.941406 38.527344 26.527344 L 29.714844 17.722656 L 26.054688 35.773438 L 26.386719 35.773438 L 26.386719 36.179688 L 26.910156 36.179688 L 26.910156 36.621094 L 27.601562 36.621094 L 27.601562 37.476562 L 29.347656 37.476562 L 29.347656 38.535156 L 30.683594 38.535156 L 30.683594 40.28125 L 32.101562 40.28125 L 32.101562 42.59375 L 33.5625 42.59375 L 33.5625 43.605469 L 35.347656 43.605469 L 35.347656 45.914062 L 36.75 45.914062 L 36.359375 46.621094 C 37.351562 46.441406 38.378906 46.664062 39.285156 47.078125 C 39.652344 47.09375 40.003906 47.136719 40.335938 47.226562 C 40.53125 47.28125 40.734375 47.355469 40.925781 47.445312 C 40.972656 47.429688 41.023438 47.398438 41.070312 47.390625 C 41.761719 47.203125 42.40625 47.191406 43.035156 47.300781 C 43.867188 46.546875 44.96875 46.066406 46.253906 46.003906 C 48.398438 45.90625 50.484375 47.65625 50.984375 49.738281 C 54.179688 52.140625 53.21875 58.566406 48.128906 58.566406 Z M 48.128906 58.566406 "/>
</g>
<mask id="mask1">
  <g filter="url(#alpha)">
<rect x="0" y="0" width="75" height="75" style="fill:rgb(0%,0%,0%);fill-opacity:0.301961;stroke:none;"/>
  </g>
</mask>
<clipPath id="clip2">
  <rect width="75" height="75"/>
</clipPath>
<g id="surface9" clip-path="url(#clip2)">
<path style=" stroke:none;fill-rule:nonzero;fill:rgb(11.764706%,11.764706%,10.980392%);fill-opacity:1;" d="M 32.308594 49.859375 L 32.308594 47.460938 L 30.15625 47.460938 L 30.15625 45.511719 L 29.386719 45.511719 L 29.386719 44.738281 L 27.601562 44.738281 L 27.601562 42.953125 L 25.613281 42.953125 L 25.613281 40.800781 L 25.035156 40.800781 L 23.949219 46.15625 L 30.734375 52.941406 C 30.839844 51.789062 31.441406 50.691406 32.308594 49.859375 Z M 32.308594 49.859375 "/>
</g>
</defs>
<g id="surface1">
<path style=" stroke:none;fill-rule:nonzero;fill:rgb(55.294118%,70.196078%,14.509804%);fill-opacity:1;" d="M 71.40625 37.5 C 71.40625 56.226562 56.226562 71.40625 37.5 71.40625 C 18.773438 71.40625 3.59375 56.226562 3.59375 37.5 C 3.59375 18.773438 18.773438 3.59375 37.5 3.59375 C 56.226562 3.59375 71.40625 18.773438 71.40625 37.5 Z M 71.40625 37.5 "/>
<path style=" stroke:none;fill-rule:nonzero;fill:rgb(100%,100%,100%);fill-opacity:1;" d="M 37.5 3.59375 C 56.226562 3.59375 71.40625 18.773438 71.40625 37.5 C 71.40625 56.226562 56.226562 71.40625 37.5 71.40625 C 18.773438 71.40625 3.59375 56.226562 3.59375 37.5 C 3.59375 18.773438 18.773438 3.59375 37.5 3.59375 M 37.5 0 C 27.480469 0 18.066406 3.898438 10.980469 10.980469 C 3.890625 18.058594 0 27.480469 0 37.5 C 0 47.519531 3.898438 56.933594 10.980469 64.019531 C 18.058594 71.109375 27.480469 75 37.5 75 C 47.519531 75 56.933594 71.101562 64.019531 64.019531 C 71.101562 56.933594 75 47.519531 75 37.5 C 75 27.480469 71.101562 18.066406 64.019531 10.980469 C 56.933594 3.898438 47.519531 0 37.5 0 Z M 37.5 0 "/>
<use xlink:href="#surface6" mask="url(#mask0)"/>
<use xlink:href="#surface9" mask="url(#mask1)"/>
<path style=" stroke:none;fill-rule:nonzero;fill:rgb(100%,100%,100%);fill-opacity:1;" d="M 41.804688 24.503906 C 39.253906 24.503906 36.863281 25.5 35.0625 27.300781 C 33.253906 29.109375 32.265625 31.5 32.265625 34.042969 C 32.265625 39.300781 36.546875 43.582031 41.804688 43.582031 L 41.8125 43.582031 C 44.355469 43.582031 46.753906 42.59375 48.554688 40.785156 C 50.363281 38.976562 51.351562 36.585938 51.351562 34.035156 C 51.34375 28.785156 47.0625 24.503906 41.804688 24.503906 Z M 47.0625 39.300781 C 45.652344 40.703125 43.792969 41.484375 41.804688 41.484375 C 37.703125 41.484375 34.363281 38.144531 34.363281 34.050781 C 34.363281 32.070312 35.136719 30.203125 36.546875 28.792969 C 37.949219 27.382812 39.816406 26.609375 41.804688 26.609375 C 45.90625 26.609375 49.246094 29.949219 49.246094 34.050781 C 49.246094 36.03125 48.472656 37.890625 47.0625 39.300781 Z M 47.0625 39.300781 "/>
<path style=" stroke:none;fill-rule:nonzero;fill:rgb(100%,100%,100%);fill-opacity:1;" d="M 30.703125 58.566406 L 52.90625 58.558594 C 53.476562 58.558594 53.941406 58.117188 53.953125 57.546875 C 53.960938 57.203125 54.148438 49.027344 49.058594 44.363281 C 48.683594 44.015625 48.113281 43.988281 47.707031 44.300781 C 47.460938 44.484375 41.683594 48.726562 36.253906 44.308594 C 36.203125 44.265625 36.136719 44.234375 36.050781 44.199219 L 35.949219 44.128906 L 27.683594 35.324219 C 27.058594 34.664062 26.191406 34.289062 25.28125 34.289062 C 24.449219 34.289062 23.648438 34.605469 23.03125 35.175781 C 21.703125 36.421875 21.636719 38.503906 22.875 39.832031 L 31.550781 49.078125 L 31.484375 49.230469 C 30.308594 51.765625 29.683594 54.546875 29.640625 57.515625 C 29.632812 57.796875 29.746094 58.074219 29.941406 58.265625 C 30.15625 58.453125 30.421875 58.566406 30.703125 58.566406 Z M 24.082031 38.707031 C 23.460938 38.039062 23.488281 36.988281 24.15625 36.367188 C 24.808594 35.765625 25.890625 35.796875 26.496094 36.441406 L 34.238281 44.683594 C 34.265625 44.722656 35.191406 45.988281 35.902344 46.648438 C 35.976562 46.703125 36.058594 46.746094 36.136719 46.792969 L 36.277344 46.875 C 37.140625 47.398438 38.046875 47.789062 38.96875 48.039062 C 43.261719 49.199219 47.011719 47.234375 48.058594 46.605469 L 48.234375 46.5 L 48.367188 46.648438 C 51.007812 49.640625 51.667969 53.917969 51.816406 56.199219 L 51.832031 56.460938 L 31.792969 56.46875 L 31.816406 56.203125 C 31.957031 54.40625 32.363281 52.664062 33 51.03125 C 33.269531 50.339844 33.5625 49.710938 33.871094 49.148438 Z M 24.082031 38.707031 "/>
<path style=" stroke:none;fill-rule:nonzero;fill:rgb(100%,100%,100%);fill-opacity:1;" d="M 27.433594 35.371094 L 30.21875 19.101562 C 30.324219 18.480469 29.902344 17.886719 29.28125 17.78125 C 28.65625 17.671875 28.066406 18.097656 27.960938 18.71875 L 25.109375 35.378906 L 27.433594 35.378906 Z M 27.433594 35.371094 "/>
<path style=" stroke:none;fill-rule:nonzero;fill:rgb(100%,100%,100%);fill-opacity:1;" d="M 24.277344 41.371094 L 24.277344 40.230469 L 23.4375 45.164062 C 23.332031 45.789062 23.753906 46.378906 24.375 46.484375 C 24.433594 46.5 24.503906 46.5 24.5625 46.5 C 25.109375 46.5 25.597656 46.101562 25.6875 45.546875 L 26.398438 41.371094 Z M 24.277344 41.371094 "/>
<path style=" stroke:none;fill-rule:nonzero;fill:rgb(100%,100%,100%);fill-opacity:1;" d="M 27.511719 28.574219 C 27.457031 28.574219 27.40625 28.566406 27.359375 28.558594 L 17.828125 26.828125 C 17.511719 26.765625 17.25 26.535156 17.160156 26.226562 C 17.070312 25.921875 17.167969 25.582031 17.398438 25.363281 L 20.21875 22.777344 L 18.523438 19.027344 C 18.398438 18.742188 18.433594 18.40625 18.628906 18.15625 C 18.824219 17.910156 19.148438 17.796875 19.449219 17.84375 L 28.980469 19.574219 C 29.203125 19.613281 29.398438 19.738281 29.527344 19.925781 C 29.65625 20.113281 29.707031 20.339844 29.664062 20.566406 L 28.335938 27.871094 C 28.273438 28.289062 27.914062 28.574219 27.511719 28.574219 Z M 19.816406 25.46875 L 26.828125 26.746094 L 27.855469 21.105469 L 20.746094 19.816406 L 22.027344 22.648438 C 22.175781 22.988281 22.101562 23.378906 21.824219 23.625 Z M 19.816406 25.46875 "/>
</g>
</svg>
