<?xml version="1.0" encoding="UTF-8"?>
<svg xmlns="http://www.w3.org/2000/svg" xmlns:xlink="http://www.w3.org/1999/xlink" width="75pt" height="75pt" viewBox="0 0 75 75" version="1.1">
<defs>
<filter id="alpha" filterUnits="objectBoundingBox" x="0%" y="0%" width="100%" height="100%">
  <feColorMatrix type="matrix" in="SourceGraphic" values="0 0 0 0 1 0 0 0 0 1 0 0 0 0 1 0 0 0 1 0"/>
</filter>
<mask id="mask0">
  <g filter="url(#alpha)">
<rect x="0" y="0" width="75" height="75" style="fill:rgb(0%,0%,0%);fill-opacity:0.301961;stroke:none;"/>
  </g>
</mask>
<clipPath id="clip1">
  <rect x="0" y="0" width="75" height="75"/>
</clipPath>
<g id="surface5" clip-path="url(#clip1)">
<path style=" stroke:none;fill-rule:nonzero;fill:rgb(11.764706%,11.764706%,10.980392%);fill-opacity:1;" d="M 47.289062 28.351562 C 48.390625 30.210938 49.621094 31.957031 51.089844 33.667969 C 52.125 34.875 53.203125 36.105469 54.015625 37.484375 C 54.023438 37.492188 54.03125 37.507812 54.03125 37.523438 C 55.664062 38.265625 56.585938 39.269531 57.21875 40.460938 C 58.027344 41.03125 58.664062 41.925781 58.941406 43.207031 C 59.265625 44.699219 59.414062 46.148438 59.421875 47.671875 C 59.429688 48.886719 59.109375 49.851562 58.566406 50.585938 C 58.359375 51.390625 57.960938 52.125 57.324219 52.640625 C 54.441406 54.996094 51.328125 56.296875 47.617188 56.625 C 47.203125 56.664062 46.808594 56.625 46.433594 56.535156 C 46.199219 56.640625 45.960938 56.746094 45.710938 56.828125 C 44.03125 57.390625 42.210938 57.40625 40.453125 57.359375 C 39.082031 57.324219 36.929688 56.601562 35.601562 57.050781 C 34.371094 57.464844 33.179688 57.277344 32.167969 56.722656 L 32.113281 57.78125 L 44.835938 70.597656 C 55.816406 68.167969 64.800781 60.421875 68.933594 50.175781 Z M 47.289062 28.351562 "/>
</g>
</defs>
<g id="surface1">
<path style=" stroke:none;fill-rule:nonzero;fill:rgb(92.156863%,40.784314%,3.137255%);fill-opacity:1;" d="M 71.40625 37.5 C 71.40625 56.226562 56.226562 71.40625 37.5 71.40625 C 18.773438 71.40625 3.59375 56.226562 3.59375 37.5 C 3.59375 18.773438 18.773438 3.59375 37.5 3.59375 C 56.226562 3.59375 71.40625 18.773438 71.40625 37.5 Z M 71.40625 37.5 "/>
<path style=" stroke:none;fill-rule:nonzero;fill:rgb(100%,100%,100%);fill-opacity:1;" d="M 37.5 3.59375 C 37.546875 3.59375 37.589844 3.59375 37.636719 3.59375 C 56.363281 3.667969 71.488281 18.90625 71.414062 37.636719 C 71.339844 56.316406 56.167969 71.40625 37.5 71.40625 C 37.453125 71.40625 37.410156 71.40625 37.363281 71.40625 C 18.636719 71.339844 3.515625 56.101562 3.59375 37.371094 C 3.660156 18.683594 18.832031 3.59375 37.5 3.59375 M 37.5 0 C 27.511719 0 18.113281 3.886719 11.039062 10.925781 C 3.960938 17.976562 0.0390625 27.367188 0 37.359375 C -0.0390625 47.378906 3.824219 56.804688 10.882812 63.914062 C 17.941406 71.023438 27.335938 74.960938 37.359375 75 L 37.507812 75 C 47.488281 75 56.886719 71.113281 63.96875 64.074219 C 71.046875 57.023438 74.960938 47.640625 75.007812 37.648438 C 75.046875 27.628906 71.183594 18.203125 64.125 11.09375 C 57.066406 3.984375 47.664062 0.0390625 37.640625 0 Z M 37.5 0 "/>
<use xlink:href="#surface5" mask="url(#mask0)"/>
<path style=" stroke:none;fill-rule:nonzero;fill:rgb(100%,100%,100%);fill-opacity:1;" d="M 58.09375 39.203125 L 34.148438 15.066406 C 34.125 15.039062 34.09375 15.015625 34.066406 14.992188 C 31.816406 13.34375 26.664062 11.121094 23.234375 14.527344 C 19.164062 18.570312 19.523438 23.121094 20.566406 24.179688 L 30.5625 34.253906 L 10.734375 34.175781 C 10.441406 34.175781 10.175781 34.351562 10.074219 34.621094 C 9.960938 34.890625 10.019531 35.199219 10.222656 35.398438 L 31.988281 57.328125 C 32.121094 57.464844 32.300781 57.539062 32.488281 57.539062 L 46.394531 57.59375 C 49.851562 57.609375 53.289062 56.648438 55.816406 54.960938 C 58.808594 52.964844 60.398438 50.136719 60.40625 46.785156 C 60.40625 46.785156 60.613281 44.585938 60.089844 42.996094 C 59.453125 41.054688 58.09375 39.203125 58.09375 39.203125 Z M 53.25 36.351562 C 52.558594 36.179688 51.832031 36.082031 51.074219 36.066406 C 51.058594 36.046875 51.046875 36.023438 51.023438 36.007812 L 29.640625 14.460938 C 31.441406 14.953125 32.910156 15.9375 33.171875 16.117188 Z M 42.988281 40.582031 L 21.796875 19.230469 C 21.96875 18.757812 22.199219 18.261719 22.5 17.753906 L 43.738281 39.148438 C 43.433594 39.59375 43.183594 40.074219 42.988281 40.582031 Z M 44.664062 38.046875 L 23.332031 16.550781 C 23.601562 16.214844 23.902344 15.886719 24.238281 15.546875 C 24.285156 15.503906 24.335938 15.457031 24.382812 15.421875 L 45.898438 37.101562 C 45.449219 37.363281 45.039062 37.6875 44.664062 38.046875 Z M 47.226562 36.457031 C 47.199219 36.390625 47.152344 36.328125 47.101562 36.269531 L 25.589844 14.601562 C 26.160156 14.339844 26.761719 14.210938 27.359375 14.183594 C 27.382812 14.210938 27.40625 14.242188 27.425781 14.273438 L 49.074219 36.074219 C 48.433594 36.121094 47.8125 36.253906 47.226562 36.457031 Z M 21.390625 20.851562 L 42.554688 42.179688 C 42.5625 42.1875 42.570312 42.195312 42.585938 42.203125 C 42.546875 42.488281 42.523438 42.78125 42.523438 43.078125 C 42.523438 43.53125 42.5625 43.972656 42.644531 44.398438 L 21.585938 23.183594 C 21.414062 22.964844 21.21875 22.078125 21.390625 20.851562 Z M 55.019531 53.773438 C 52.726562 55.304688 49.582031 56.175781 46.394531 56.167969 L 32.78125 56.113281 L 12.449219 35.617188 L 31.613281 35.691406 C 31.71875 35.691406 31.824219 35.671875 31.914062 35.625 L 44.226562 48.03125 C 45.425781 49.359375 47.8125 50.378906 49.664062 50.265625 C 52.484375 50.101562 54.789062 47.992188 54.800781 45.164062 L 54.800781 45.039062 C 54.808594 42.53125 52.777344 40.484375 50.273438 40.46875 L 49.867188 40.46875 C 47.925781 40.460938 46.34375 42.039062 46.335938 43.980469 C 46.328125 45.921875 47.902344 47.503906 49.84375 47.511719 L 50.386719 47.511719 C 50.78125 47.511719 51.105469 47.199219 51.105469 46.800781 C 51.105469 46.402344 50.789062 46.078125 50.390625 46.078125 L 49.851562 46.078125 C 48.699219 46.074219 47.765625 45.136719 47.773438 43.980469 C 47.78125 42.824219 48.71875 41.894531 49.875 41.902344 L 50.28125 41.902344 C 51.996094 41.910156 53.390625 43.3125 53.386719 45.03125 L 53.386719 45.15625 C 53.378906 47.191406 51.71875 48.832031 49.671875 48.824219 C 46.515625 48.808594 43.949219 46.230469 43.964844 43.074219 C 43.980469 39.976562 46.507812 37.46875 49.597656 37.484375 L 50.960938 37.492188 C 53.339844 37.5 55.371094 38.4375 56.828125 40.199219 C 58.230469 41.886719 58.996094 44.226562 58.980469 46.777344 C 58.964844 50.390625 56.820312 52.574219 55.019531 53.773438 Z M 55.019531 53.773438 "/>
</g>
</svg>
